<mxfile host="app.diagrams.net" modified="2023-05-23T03:25:57.610Z" agent="Mozilla/5.0 (Windows NT 10.0; Win64; x64; rv:109.0) Gecko/20100101 Firefox/113.0" etag="R1kx33Yz7COVbZQ0LNcc" version="21.3.2" type="device">
  <diagram name="Page-1" id="IJ2TFcbn0Lu6SNVqhSVj">
    <mxGraphModel dx="1793" dy="991" grid="1" gridSize="10" guides="1" tooltips="1" connect="1" arrows="1" fold="1" page="1" pageScale="1" pageWidth="850" pageHeight="1100" math="0" shadow="0">
      <root>
        <mxCell id="0" />
        <mxCell id="1" parent="0" />
        <mxCell id="JLhUXGUJFV2L9TylYYv--358" value="" style="rounded=0;whiteSpace=wrap;html=1;" vertex="1" parent="1">
          <mxGeometry x="2039.84" y="761.5" width="440" height="38.5" as="geometry" />
        </mxCell>
        <mxCell id="JLhUXGUJFV2L9TylYYv--359" value="" style="rounded=0;whiteSpace=wrap;html=1;" vertex="1" parent="1">
          <mxGeometry x="2040" y="720.5" width="440" height="38.5" as="geometry" />
        </mxCell>
        <mxCell id="GeOrMXXM5Ln6Xm9U8jmn-1" value="" style="ellipse;whiteSpace=wrap;html=1;aspect=fixed;fillColor=#1ba1e2;fontColor=#ffffff;strokeColor=#006EAF;" parent="1" vertex="1">
          <mxGeometry x="200" y="120" width="80" height="80" as="geometry" />
        </mxCell>
        <mxCell id="GeOrMXXM5Ln6Xm9U8jmn-2" value="" style="ellipse;whiteSpace=wrap;html=1;aspect=fixed;fillColor=#1ba1e2;fontColor=#ffffff;strokeColor=#006EAF;" parent="1" vertex="1">
          <mxGeometry x="400" y="120" width="80" height="80" as="geometry" />
        </mxCell>
        <mxCell id="GeOrMXXM5Ln6Xm9U8jmn-3" value="" style="ellipse;whiteSpace=wrap;html=1;aspect=fixed;fillColor=#1ba1e2;fontColor=#ffffff;strokeColor=#006EAF;" parent="1" vertex="1">
          <mxGeometry x="200" y="240" width="80" height="80" as="geometry" />
        </mxCell>
        <mxCell id="GeOrMXXM5Ln6Xm9U8jmn-4" value="" style="ellipse;whiteSpace=wrap;html=1;aspect=fixed;fillColor=#1ba1e2;fontColor=#ffffff;strokeColor=#006EAF;" parent="1" vertex="1">
          <mxGeometry x="400" y="240" width="80" height="80" as="geometry" />
        </mxCell>
        <mxCell id="GeOrMXXM5Ln6Xm9U8jmn-6" value="" style="rounded=0;whiteSpace=wrap;html=1;" parent="1" vertex="1">
          <mxGeometry x="320" y="120" width="40" height="960" as="geometry" />
        </mxCell>
        <mxCell id="GeOrMXXM5Ln6Xm9U8jmn-7" value="" style="ellipse;whiteSpace=wrap;html=1;aspect=fixed;fillColor=#1ba1e2;fontColor=#ffffff;strokeColor=#006EAF;" parent="1" vertex="1">
          <mxGeometry x="200" y="360" width="80" height="80" as="geometry" />
        </mxCell>
        <mxCell id="GeOrMXXM5Ln6Xm9U8jmn-8" value="" style="ellipse;whiteSpace=wrap;html=1;aspect=fixed;fillColor=#1ba1e2;fontColor=#ffffff;strokeColor=#006EAF;" parent="1" vertex="1">
          <mxGeometry x="400" y="360" width="80" height="80" as="geometry" />
        </mxCell>
        <mxCell id="GeOrMXXM5Ln6Xm9U8jmn-9" value="" style="ellipse;whiteSpace=wrap;html=1;aspect=fixed;fillColor=#1ba1e2;fontColor=#ffffff;strokeColor=#006EAF;" parent="1" vertex="1">
          <mxGeometry x="200" y="480" width="80" height="80" as="geometry" />
        </mxCell>
        <mxCell id="GeOrMXXM5Ln6Xm9U8jmn-10" value="" style="ellipse;whiteSpace=wrap;html=1;aspect=fixed;fillColor=#1ba1e2;fontColor=#ffffff;strokeColor=#006EAF;" parent="1" vertex="1">
          <mxGeometry x="400" y="480" width="80" height="80" as="geometry" />
        </mxCell>
        <mxCell id="GeOrMXXM5Ln6Xm9U8jmn-11" value="" style="whiteSpace=wrap;html=1;aspect=fixed;fillColor=#a20025;fontColor=#ffffff;strokeColor=#6F0000;" parent="1" vertex="1">
          <mxGeometry x="200" y="600" width="80" height="80" as="geometry" />
        </mxCell>
        <mxCell id="GeOrMXXM5Ln6Xm9U8jmn-12" value="" style="whiteSpace=wrap;html=1;aspect=fixed;fillColor=#60a917;fontColor=#ffffff;strokeColor=#2D7600;" parent="1" vertex="1">
          <mxGeometry x="400" y="960" width="80" height="80" as="geometry" />
        </mxCell>
        <mxCell id="GeOrMXXM5Ln6Xm9U8jmn-13" value="" style="rounded=0;whiteSpace=wrap;html=1;fillColor=#a20025;fontColor=#ffffff;strokeColor=#6F0000;" parent="1" vertex="1">
          <mxGeometry x="200" y="720" width="80" height="80" as="geometry" />
        </mxCell>
        <mxCell id="GeOrMXXM5Ln6Xm9U8jmn-14" value="" style="rounded=0;whiteSpace=wrap;html=1;fillColor=#60a917;fontColor=#ffffff;strokeColor=#2D7600;" parent="1" vertex="1">
          <mxGeometry x="400" y="720" width="80" height="80" as="geometry" />
        </mxCell>
        <mxCell id="GeOrMXXM5Ln6Xm9U8jmn-17" value="" style="rounded=0;whiteSpace=wrap;html=1;fillColor=#a20025;fontColor=#ffffff;strokeColor=#6F0000;" parent="1" vertex="1">
          <mxGeometry x="200" y="840" width="80" height="80" as="geometry" />
        </mxCell>
        <mxCell id="GeOrMXXM5Ln6Xm9U8jmn-18" value="" style="rounded=0;whiteSpace=wrap;html=1;fillColor=#60a917;fontColor=#ffffff;strokeColor=#2D7600;" parent="1" vertex="1">
          <mxGeometry x="400" y="840" width="80" height="80" as="geometry" />
        </mxCell>
        <mxCell id="GeOrMXXM5Ln6Xm9U8jmn-19" value="" style="whiteSpace=wrap;html=1;aspect=fixed;fillColor=#f5f5f5;fontColor=#333333;strokeColor=#666666;" parent="1" vertex="1">
          <mxGeometry x="400" y="600" width="80" height="80" as="geometry" />
        </mxCell>
        <mxCell id="GeOrMXXM5Ln6Xm9U8jmn-20" value="Cogs" style="whiteSpace=wrap;html=1;aspect=fixed;" parent="1" vertex="1">
          <mxGeometry x="200" y="960" width="80" height="80" as="geometry" />
        </mxCell>
        <mxCell id="GeOrMXXM5Ln6Xm9U8jmn-26" value="" style="endArrow=classic;html=1;rounded=0;entryX=1;entryY=0.5;entryDx=0;entryDy=0;exitX=-0.115;exitY=0.041;exitDx=0;exitDy=0;exitPerimeter=0;fillColor=#e3c800;strokeColor=#B09500;" parent="1" source="GeOrMXXM5Ln6Xm9U8jmn-6" target="GeOrMXXM5Ln6Xm9U8jmn-1" edge="1">
          <mxGeometry width="50" height="50" relative="1" as="geometry">
            <mxPoint x="310" y="200" as="sourcePoint" />
            <mxPoint x="360" y="150" as="targetPoint" />
          </mxGeometry>
        </mxCell>
        <mxCell id="GeOrMXXM5Ln6Xm9U8jmn-27" value="" style="endArrow=classic;html=1;rounded=0;entryX=1;entryY=0.5;entryDx=0;entryDy=0;exitX=-0.115;exitY=0.041;exitDx=0;exitDy=0;exitPerimeter=0;fillColor=#e3c800;strokeColor=#B09500;" parent="1" edge="1">
          <mxGeometry width="50" height="50" relative="1" as="geometry">
            <mxPoint x="315" y="280" as="sourcePoint" />
            <mxPoint x="280" y="281" as="targetPoint" />
          </mxGeometry>
        </mxCell>
        <mxCell id="GeOrMXXM5Ln6Xm9U8jmn-28" value="" style="endArrow=classic;html=1;rounded=0;entryX=1;entryY=0.5;entryDx=0;entryDy=0;exitX=-0.115;exitY=0.041;exitDx=0;exitDy=0;exitPerimeter=0;fillColor=#e3c800;strokeColor=#B09500;" parent="1" edge="1">
          <mxGeometry width="50" height="50" relative="1" as="geometry">
            <mxPoint x="315" y="399.5" as="sourcePoint" />
            <mxPoint x="280" y="400.5" as="targetPoint" />
          </mxGeometry>
        </mxCell>
        <mxCell id="GeOrMXXM5Ln6Xm9U8jmn-29" value="" style="endArrow=classic;html=1;rounded=0;entryX=1;entryY=0.5;entryDx=0;entryDy=0;exitX=-0.115;exitY=0.041;exitDx=0;exitDy=0;exitPerimeter=0;fillColor=#e3c800;strokeColor=#B09500;" parent="1" edge="1">
          <mxGeometry width="50" height="50" relative="1" as="geometry">
            <mxPoint x="315" y="519.5" as="sourcePoint" />
            <mxPoint x="280" y="520.5" as="targetPoint" />
          </mxGeometry>
        </mxCell>
        <mxCell id="GeOrMXXM5Ln6Xm9U8jmn-30" value="" style="endArrow=none;html=1;rounded=0;entryX=1;entryY=0.5;entryDx=0;entryDy=0;exitX=-0.115;exitY=0.041;exitDx=0;exitDy=0;exitPerimeter=0;startArrow=classic;startFill=1;endFill=0;fillColor=#e3c800;strokeColor=#B09500;" parent="1" edge="1">
          <mxGeometry width="50" height="50" relative="1" as="geometry">
            <mxPoint x="320" y="639.5" as="sourcePoint" />
            <mxPoint x="285" y="640.5" as="targetPoint" />
          </mxGeometry>
        </mxCell>
        <mxCell id="GeOrMXXM5Ln6Xm9U8jmn-31" value="" style="endArrow=none;html=1;rounded=0;entryX=1;entryY=0.5;entryDx=0;entryDy=0;exitX=-0.115;exitY=0.041;exitDx=0;exitDy=0;exitPerimeter=0;startArrow=classic;startFill=1;endFill=0;fillColor=#e3c800;strokeColor=#B09500;" parent="1" edge="1">
          <mxGeometry width="50" height="50" relative="1" as="geometry">
            <mxPoint x="320" y="759.5" as="sourcePoint" />
            <mxPoint x="285" y="760.5" as="targetPoint" />
          </mxGeometry>
        </mxCell>
        <mxCell id="GeOrMXXM5Ln6Xm9U8jmn-32" value="" style="endArrow=none;html=1;rounded=0;entryX=1;entryY=0.5;entryDx=0;entryDy=0;exitX=-0.115;exitY=0.041;exitDx=0;exitDy=0;exitPerimeter=0;startArrow=classic;startFill=1;endFill=0;fillColor=#e3c800;strokeColor=#B09500;" parent="1" edge="1">
          <mxGeometry width="50" height="50" relative="1" as="geometry">
            <mxPoint x="320" y="879.5" as="sourcePoint" />
            <mxPoint x="285" y="880.5" as="targetPoint" />
          </mxGeometry>
        </mxCell>
        <mxCell id="GeOrMXXM5Ln6Xm9U8jmn-33" value="" style="endArrow=none;html=1;rounded=0;entryX=1;entryY=0.5;entryDx=0;entryDy=0;startArrow=classic;startFill=1;endFill=0;" parent="1" edge="1">
          <mxGeometry width="50" height="50" relative="1" as="geometry">
            <mxPoint x="240" y="1080" as="sourcePoint" />
            <mxPoint x="240" y="1041" as="targetPoint" />
          </mxGeometry>
        </mxCell>
        <mxCell id="GeOrMXXM5Ln6Xm9U8jmn-34" value="" style="endArrow=none;html=1;rounded=0;entryX=1;entryY=0.5;entryDx=0;entryDy=0;exitX=-0.115;exitY=0.041;exitDx=0;exitDy=0;exitPerimeter=0;endFill=0;startArrow=classic;startFill=1;fillColor=#e3c800;strokeColor=#B09500;" parent="1" edge="1">
          <mxGeometry width="50" height="50" relative="1" as="geometry">
            <mxPoint x="395" y="159.25" as="sourcePoint" />
            <mxPoint x="360" y="160.25" as="targetPoint" />
          </mxGeometry>
        </mxCell>
        <mxCell id="GeOrMXXM5Ln6Xm9U8jmn-35" value="" style="endArrow=none;html=1;rounded=0;entryX=1;entryY=0.5;entryDx=0;entryDy=0;exitX=-0.115;exitY=0.041;exitDx=0;exitDy=0;exitPerimeter=0;endFill=0;startArrow=classic;startFill=1;fillColor=#e3c800;strokeColor=#B09500;" parent="1" edge="1">
          <mxGeometry width="50" height="50" relative="1" as="geometry">
            <mxPoint x="395" y="280.25" as="sourcePoint" />
            <mxPoint x="360" y="281.25" as="targetPoint" />
          </mxGeometry>
        </mxCell>
        <mxCell id="GeOrMXXM5Ln6Xm9U8jmn-36" value="" style="endArrow=none;html=1;rounded=0;entryX=1;entryY=0.5;entryDx=0;entryDy=0;exitX=-0.115;exitY=0.041;exitDx=0;exitDy=0;exitPerimeter=0;endFill=0;startArrow=classic;startFill=1;fillColor=#e3c800;strokeColor=#B09500;" parent="1" edge="1">
          <mxGeometry width="50" height="50" relative="1" as="geometry">
            <mxPoint x="395" y="399.5" as="sourcePoint" />
            <mxPoint x="360" y="400.5" as="targetPoint" />
          </mxGeometry>
        </mxCell>
        <mxCell id="GeOrMXXM5Ln6Xm9U8jmn-37" value="" style="endArrow=none;html=1;rounded=0;entryX=1;entryY=0.5;entryDx=0;entryDy=0;exitX=-0.115;exitY=0.041;exitDx=0;exitDy=0;exitPerimeter=0;endFill=0;startArrow=classic;startFill=1;fillColor=#e3c800;strokeColor=#B09500;" parent="1" edge="1">
          <mxGeometry width="50" height="50" relative="1" as="geometry">
            <mxPoint x="395" y="519.75" as="sourcePoint" />
            <mxPoint x="360" y="520.75" as="targetPoint" />
          </mxGeometry>
        </mxCell>
        <mxCell id="GeOrMXXM5Ln6Xm9U8jmn-39" value="" style="endArrow=classic;html=1;rounded=0;entryX=1;entryY=0.5;entryDx=0;entryDy=0;exitX=-0.115;exitY=0.041;exitDx=0;exitDy=0;exitPerimeter=0;startArrow=none;startFill=0;endFill=1;fillColor=#e3c800;strokeColor=#B09500;" parent="1" edge="1">
          <mxGeometry width="50" height="50" relative="1" as="geometry">
            <mxPoint x="400" y="759.75" as="sourcePoint" />
            <mxPoint x="365" y="760.75" as="targetPoint" />
          </mxGeometry>
        </mxCell>
        <mxCell id="GeOrMXXM5Ln6Xm9U8jmn-40" value="" style="endArrow=classic;html=1;rounded=0;entryX=1;entryY=0.5;entryDx=0;entryDy=0;exitX=-0.115;exitY=0.041;exitDx=0;exitDy=0;exitPerimeter=0;startArrow=none;startFill=0;endFill=1;fillColor=#e3c800;strokeColor=#B09500;" parent="1" edge="1">
          <mxGeometry width="50" height="50" relative="1" as="geometry">
            <mxPoint x="400" y="879.75" as="sourcePoint" />
            <mxPoint x="365" y="880.75" as="targetPoint" />
          </mxGeometry>
        </mxCell>
        <mxCell id="GeOrMXXM5Ln6Xm9U8jmn-41" value="" style="endArrow=classic;html=1;rounded=0;entryX=1;entryY=0.5;entryDx=0;entryDy=0;exitX=-0.115;exitY=0.041;exitDx=0;exitDy=0;exitPerimeter=0;startArrow=none;startFill=0;endFill=1;fillColor=#e3c800;strokeColor=#B09500;" parent="1" edge="1">
          <mxGeometry width="50" height="50" relative="1" as="geometry">
            <mxPoint x="400" y="996" as="sourcePoint" />
            <mxPoint x="365" y="997" as="targetPoint" />
          </mxGeometry>
        </mxCell>
        <mxCell id="GeOrMXXM5Ln6Xm9U8jmn-42" value="" style="rounded=0;whiteSpace=wrap;html=1;fillColor=#a20025;strokeColor=#6F0000;fontColor=#ffffff;" parent="1" vertex="1">
          <mxGeometry x="320" y="120" width="20" height="960" as="geometry" />
        </mxCell>
        <mxCell id="GeOrMXXM5Ln6Xm9U8jmn-43" value="" style="rounded=0;whiteSpace=wrap;html=1;fillColor=#60a917;strokeColor=#2D7600;fontColor=#ffffff;" parent="1" vertex="1">
          <mxGeometry x="340" y="120" width="20" height="960" as="geometry" />
        </mxCell>
        <mxCell id="GeOrMXXM5Ln6Xm9U8jmn-44" value="" style="whiteSpace=wrap;html=1;aspect=fixed;fillColor=#0050ef;fontColor=#ffffff;strokeColor=#001DBC;" parent="1" vertex="1">
          <mxGeometry x="600" y="120" width="80" height="80" as="geometry" />
        </mxCell>
        <mxCell id="GeOrMXXM5Ln6Xm9U8jmn-45" value="" style="whiteSpace=wrap;html=1;aspect=fixed;fillColor=#0050ef;fontColor=#ffffff;strokeColor=#001DBC;" parent="1" vertex="1">
          <mxGeometry x="600" y="240" width="80" height="80" as="geometry" />
        </mxCell>
        <mxCell id="GeOrMXXM5Ln6Xm9U8jmn-46" value="" style="whiteSpace=wrap;html=1;aspect=fixed;fillColor=#0050ef;fontColor=#ffffff;strokeColor=#001DBC;" parent="1" vertex="1">
          <mxGeometry x="600" y="360" width="80" height="80" as="geometry" />
        </mxCell>
        <mxCell id="GeOrMXXM5Ln6Xm9U8jmn-47" value="" style="whiteSpace=wrap;html=1;aspect=fixed;fillColor=#0050ef;fontColor=#ffffff;strokeColor=#001DBC;" parent="1" vertex="1">
          <mxGeometry x="600" y="480" width="80" height="80" as="geometry" />
        </mxCell>
        <mxCell id="GeOrMXXM5Ln6Xm9U8jmn-48" value="" style="endArrow=classic;html=1;rounded=0;exitX=0;exitY=0.5;exitDx=0;exitDy=0;fillColor=#e51400;strokeColor=#B20000;" parent="1" source="GeOrMXXM5Ln6Xm9U8jmn-47" edge="1">
          <mxGeometry width="50" height="50" relative="1" as="geometry">
            <mxPoint x="-140" y="600" as="sourcePoint" />
            <mxPoint x="480" y="520" as="targetPoint" />
          </mxGeometry>
        </mxCell>
        <mxCell id="GeOrMXXM5Ln6Xm9U8jmn-49" value="" style="endArrow=classic;html=1;rounded=0;exitX=0;exitY=0.5;exitDx=0;exitDy=0;fillColor=#e51400;strokeColor=#B20000;" parent="1" edge="1">
          <mxGeometry width="50" height="50" relative="1" as="geometry">
            <mxPoint x="600" y="399.72" as="sourcePoint" />
            <mxPoint x="480" y="399.72" as="targetPoint" />
          </mxGeometry>
        </mxCell>
        <mxCell id="GeOrMXXM5Ln6Xm9U8jmn-50" value="" style="endArrow=classic;html=1;rounded=0;exitX=0;exitY=0.5;exitDx=0;exitDy=0;fillColor=#e51400;strokeColor=#B20000;" parent="1" edge="1">
          <mxGeometry width="50" height="50" relative="1" as="geometry">
            <mxPoint x="600" y="279.72" as="sourcePoint" />
            <mxPoint x="480" y="279.72" as="targetPoint" />
          </mxGeometry>
        </mxCell>
        <mxCell id="GeOrMXXM5Ln6Xm9U8jmn-51" value="" style="endArrow=classic;html=1;rounded=0;exitX=0;exitY=0.5;exitDx=0;exitDy=0;fillColor=#e51400;strokeColor=#B20000;" parent="1" edge="1">
          <mxGeometry width="50" height="50" relative="1" as="geometry">
            <mxPoint x="600" y="159.72000000000003" as="sourcePoint" />
            <mxPoint x="480" y="159.72000000000003" as="targetPoint" />
          </mxGeometry>
        </mxCell>
        <mxCell id="GeOrMXXM5Ln6Xm9U8jmn-54" value="Current state, Red, Green, Blue Science" style="text;html=1;strokeColor=none;fillColor=none;align=center;verticalAlign=middle;whiteSpace=wrap;rounded=0;" parent="1" vertex="1">
          <mxGeometry x="230" y="30" width="220" height="60" as="geometry" />
        </mxCell>
        <mxCell id="GeOrMXXM5Ln6Xm9U8jmn-56" value="" style="ellipse;whiteSpace=wrap;html=1;aspect=fixed;fillColor=#1ba1e2;fontColor=#ffffff;strokeColor=#006EAF;" parent="1" vertex="1">
          <mxGeometry x="1000" y="480" width="80" height="80" as="geometry" />
        </mxCell>
        <mxCell id="GeOrMXXM5Ln6Xm9U8jmn-57" value="" style="ellipse;whiteSpace=wrap;html=1;aspect=fixed;fillColor=#1ba1e2;fontColor=#ffffff;strokeColor=#006EAF;" parent="1" vertex="1">
          <mxGeometry x="1120" y="480" width="80" height="80" as="geometry" />
        </mxCell>
        <mxCell id="GeOrMXXM5Ln6Xm9U8jmn-58" value="" style="ellipse;whiteSpace=wrap;html=1;aspect=fixed;fillColor=#1ba1e2;fontColor=#ffffff;strokeColor=#006EAF;" parent="1" vertex="1">
          <mxGeometry x="1120" y="600" width="80" height="80" as="geometry" />
        </mxCell>
        <mxCell id="GeOrMXXM5Ln6Xm9U8jmn-59" value="" style="ellipse;whiteSpace=wrap;html=1;aspect=fixed;fillColor=#1ba1e2;fontColor=#ffffff;strokeColor=#006EAF;" parent="1" vertex="1">
          <mxGeometry x="1000" y="600" width="80" height="80" as="geometry" />
        </mxCell>
        <mxCell id="GeOrMXXM5Ln6Xm9U8jmn-60" value="" style="ellipse;whiteSpace=wrap;html=1;aspect=fixed;fillColor=#1ba1e2;fontColor=#ffffff;strokeColor=#006EAF;" parent="1" vertex="1">
          <mxGeometry x="1240" y="479.5" width="80" height="80" as="geometry" />
        </mxCell>
        <mxCell id="GeOrMXXM5Ln6Xm9U8jmn-61" value="" style="ellipse;whiteSpace=wrap;html=1;aspect=fixed;fillColor=#1ba1e2;fontColor=#ffffff;strokeColor=#006EAF;" parent="1" vertex="1">
          <mxGeometry x="1360" y="479.5" width="80" height="80" as="geometry" />
        </mxCell>
        <mxCell id="GeOrMXXM5Ln6Xm9U8jmn-62" value="" style="ellipse;whiteSpace=wrap;html=1;aspect=fixed;fillColor=#1ba1e2;fontColor=#ffffff;strokeColor=#006EAF;" parent="1" vertex="1">
          <mxGeometry x="1360" y="599.5" width="80" height="80" as="geometry" />
        </mxCell>
        <mxCell id="GeOrMXXM5Ln6Xm9U8jmn-63" value="" style="ellipse;whiteSpace=wrap;html=1;aspect=fixed;fillColor=#1ba1e2;fontColor=#ffffff;strokeColor=#006EAF;" parent="1" vertex="1">
          <mxGeometry x="1240" y="599.5" width="80" height="80" as="geometry" />
        </mxCell>
        <mxCell id="GeOrMXXM5Ln6Xm9U8jmn-64" value="" style="ellipse;whiteSpace=wrap;html=1;aspect=fixed;fillColor=#1ba1e2;fontColor=#ffffff;strokeColor=#006EAF;" parent="1" vertex="1">
          <mxGeometry x="1240" y="799.5" width="80" height="80" as="geometry" />
        </mxCell>
        <mxCell id="GeOrMXXM5Ln6Xm9U8jmn-65" value="" style="ellipse;whiteSpace=wrap;html=1;aspect=fixed;fillColor=#1ba1e2;fontColor=#ffffff;strokeColor=#006EAF;" parent="1" vertex="1">
          <mxGeometry x="1360" y="799.5" width="80" height="80" as="geometry" />
        </mxCell>
        <mxCell id="GeOrMXXM5Ln6Xm9U8jmn-66" value="" style="ellipse;whiteSpace=wrap;html=1;aspect=fixed;fillColor=#1ba1e2;fontColor=#ffffff;strokeColor=#006EAF;" parent="1" vertex="1">
          <mxGeometry x="1360" y="919.5" width="80" height="80" as="geometry" />
        </mxCell>
        <mxCell id="GeOrMXXM5Ln6Xm9U8jmn-67" value="" style="ellipse;whiteSpace=wrap;html=1;aspect=fixed;fillColor=#1ba1e2;fontColor=#ffffff;strokeColor=#006EAF;" parent="1" vertex="1">
          <mxGeometry x="1240" y="919.5" width="80" height="80" as="geometry" />
        </mxCell>
        <mxCell id="GeOrMXXM5Ln6Xm9U8jmn-68" value="" style="ellipse;whiteSpace=wrap;html=1;aspect=fixed;fillColor=#1ba1e2;fontColor=#ffffff;strokeColor=#006EAF;" parent="1" vertex="1">
          <mxGeometry x="1000" y="800" width="80" height="80" as="geometry" />
        </mxCell>
        <mxCell id="GeOrMXXM5Ln6Xm9U8jmn-69" value="" style="ellipse;whiteSpace=wrap;html=1;aspect=fixed;fillColor=#1ba1e2;fontColor=#ffffff;strokeColor=#006EAF;" parent="1" vertex="1">
          <mxGeometry x="1120" y="800" width="80" height="80" as="geometry" />
        </mxCell>
        <mxCell id="GeOrMXXM5Ln6Xm9U8jmn-70" value="" style="ellipse;whiteSpace=wrap;html=1;aspect=fixed;fillColor=#1ba1e2;fontColor=#ffffff;strokeColor=#006EAF;" parent="1" vertex="1">
          <mxGeometry x="1120" y="920" width="80" height="80" as="geometry" />
        </mxCell>
        <mxCell id="GeOrMXXM5Ln6Xm9U8jmn-71" value="" style="ellipse;whiteSpace=wrap;html=1;aspect=fixed;fillColor=#1ba1e2;fontColor=#ffffff;strokeColor=#006EAF;" parent="1" vertex="1">
          <mxGeometry x="1000" y="920" width="80" height="80" as="geometry" />
        </mxCell>
        <mxCell id="JLhUXGUJFV2L9TylYYv--4" value="" style="rounded=0;whiteSpace=wrap;html=1;" vertex="1" parent="1">
          <mxGeometry x="1320" y="399.5" width="40" height="40" as="geometry" />
        </mxCell>
        <mxCell id="JLhUXGUJFV2L9TylYYv--7" value="" style="ellipse;whiteSpace=wrap;html=1;aspect=fixed;fillColor=#1ba1e2;fontColor=#ffffff;strokeColor=#006EAF;" vertex="1" parent="1">
          <mxGeometry x="1000" y="160" width="80" height="80" as="geometry" />
        </mxCell>
        <mxCell id="JLhUXGUJFV2L9TylYYv--8" value="" style="ellipse;whiteSpace=wrap;html=1;aspect=fixed;fillColor=#1ba1e2;fontColor=#ffffff;strokeColor=#006EAF;" vertex="1" parent="1">
          <mxGeometry x="1120" y="160" width="80" height="80" as="geometry" />
        </mxCell>
        <mxCell id="JLhUXGUJFV2L9TylYYv--9" value="" style="ellipse;whiteSpace=wrap;html=1;aspect=fixed;fillColor=#1ba1e2;fontColor=#ffffff;strokeColor=#006EAF;" vertex="1" parent="1">
          <mxGeometry x="1120" y="280" width="80" height="80" as="geometry" />
        </mxCell>
        <mxCell id="JLhUXGUJFV2L9TylYYv--10" value="" style="ellipse;whiteSpace=wrap;html=1;aspect=fixed;fillColor=#1ba1e2;fontColor=#ffffff;strokeColor=#006EAF;" vertex="1" parent="1">
          <mxGeometry x="1000" y="280" width="80" height="80" as="geometry" />
        </mxCell>
        <mxCell id="JLhUXGUJFV2L9TylYYv--11" value="" style="ellipse;whiteSpace=wrap;html=1;aspect=fixed;fillColor=#1ba1e2;fontColor=#ffffff;strokeColor=#006EAF;" vertex="1" parent="1">
          <mxGeometry x="1240" y="159.5" width="80" height="80" as="geometry" />
        </mxCell>
        <mxCell id="JLhUXGUJFV2L9TylYYv--12" value="" style="ellipse;whiteSpace=wrap;html=1;aspect=fixed;fillColor=#1ba1e2;fontColor=#ffffff;strokeColor=#006EAF;" vertex="1" parent="1">
          <mxGeometry x="1360" y="159.5" width="80" height="80" as="geometry" />
        </mxCell>
        <mxCell id="JLhUXGUJFV2L9TylYYv--13" value="" style="ellipse;whiteSpace=wrap;html=1;aspect=fixed;fillColor=#1ba1e2;fontColor=#ffffff;strokeColor=#006EAF;" vertex="1" parent="1">
          <mxGeometry x="1360" y="279.5" width="80" height="80" as="geometry" />
        </mxCell>
        <mxCell id="JLhUXGUJFV2L9TylYYv--14" value="" style="ellipse;whiteSpace=wrap;html=1;aspect=fixed;fillColor=#1ba1e2;fontColor=#ffffff;strokeColor=#006EAF;" vertex="1" parent="1">
          <mxGeometry x="1240" y="279.5" width="80" height="80" as="geometry" />
        </mxCell>
        <mxCell id="JLhUXGUJFV2L9TylYYv--37" value="" style="triangle;whiteSpace=wrap;html=1;rotation=-180;" vertex="1" parent="1">
          <mxGeometry x="1300" y="400" width="20" height="39" as="geometry" />
        </mxCell>
        <mxCell id="JLhUXGUJFV2L9TylYYv--38" value="" style="triangle;whiteSpace=wrap;html=1;rotation=0;" vertex="1" parent="1">
          <mxGeometry x="1240" y="400" width="20" height="39" as="geometry" />
        </mxCell>
        <mxCell id="JLhUXGUJFV2L9TylYYv--39" value="" style="triangle;whiteSpace=wrap;html=1;rotation=-180;" vertex="1" parent="1">
          <mxGeometry x="1420" y="400" width="20" height="39" as="geometry" />
        </mxCell>
        <mxCell id="JLhUXGUJFV2L9TylYYv--40" value="" style="triangle;whiteSpace=wrap;html=1;rotation=0;" vertex="1" parent="1">
          <mxGeometry x="1360" y="399.5" width="20" height="39" as="geometry" />
        </mxCell>
        <mxCell id="JLhUXGUJFV2L9TylYYv--68" value="" style="endArrow=classic;html=1;rounded=0;entryX=0;entryY=0.5;entryDx=0;entryDy=0;startArrow=none;startFill=0;endFill=1;fillColor=#6a00ff;strokeColor=#3700CC;exitX=0;exitY=0.5;exitDx=0;exitDy=0;" edge="1" parent="1" source="JLhUXGUJFV2L9TylYYv--10" target="JLhUXGUJFV2L9TylYYv--7">
          <mxGeometry width="50" height="50" relative="1" as="geometry">
            <mxPoint x="1010" y="290" as="sourcePoint" />
            <mxPoint x="1009.64" y="230" as="targetPoint" />
          </mxGeometry>
        </mxCell>
        <mxCell id="JLhUXGUJFV2L9TylYYv--69" value="" style="endArrow=classic;html=1;rounded=0;entryX=0;entryY=0.5;entryDx=0;entryDy=0;exitX=0;exitY=0.5;exitDx=0;exitDy=0;startArrow=none;startFill=0;endFill=1;fillColor=#6a00ff;strokeColor=#3700CC;" edge="1" parent="1" source="JLhUXGUJFV2L9TylYYv--9" target="JLhUXGUJFV2L9TylYYv--8">
          <mxGeometry width="50" height="50" relative="1" as="geometry">
            <mxPoint x="1119.2900000000002" y="280" as="sourcePoint" />
            <mxPoint x="1119.2900000000002" y="240" as="targetPoint" />
          </mxGeometry>
        </mxCell>
        <mxCell id="JLhUXGUJFV2L9TylYYv--82" value="" style="endArrow=classic;html=1;rounded=0;entryX=0;entryY=1;entryDx=0;entryDy=0;exitX=0.5;exitY=0;exitDx=0;exitDy=0;startArrow=none;startFill=0;endFill=1;fillColor=#e3c800;strokeColor=#B09500;" edge="1" parent="1" target="GeOrMXXM5Ln6Xm9U8jmn-71">
          <mxGeometry width="50" height="50" relative="1" as="geometry">
            <mxPoint x="1010" y="1040" as="sourcePoint" />
            <mxPoint x="1010" y="1000" as="targetPoint" />
          </mxGeometry>
        </mxCell>
        <mxCell id="JLhUXGUJFV2L9TylYYv--83" value="" style="endArrow=classic;html=1;rounded=0;entryX=1;entryY=1;entryDx=0;entryDy=0;exitX=0.5;exitY=0;exitDx=0;exitDy=0;startArrow=none;startFill=0;endFill=1;fillColor=#e3c800;strokeColor=#B09500;" edge="1" parent="1" target="GeOrMXXM5Ln6Xm9U8jmn-70">
          <mxGeometry width="50" height="50" relative="1" as="geometry">
            <mxPoint x="1190" y="1040" as="sourcePoint" />
            <mxPoint x="1190" y="1000" as="targetPoint" />
          </mxGeometry>
        </mxCell>
        <mxCell id="JLhUXGUJFV2L9TylYYv--84" value="" style="endArrow=classic;html=1;rounded=0;entryX=0;entryY=1;entryDx=0;entryDy=0;exitX=0.5;exitY=0;exitDx=0;exitDy=0;startArrow=none;startFill=0;endFill=1;fillColor=#e3c800;strokeColor=#B09500;" edge="1" parent="1" target="GeOrMXXM5Ln6Xm9U8jmn-59">
          <mxGeometry width="50" height="50" relative="1" as="geometry">
            <mxPoint x="1010" y="720" as="sourcePoint" />
            <mxPoint x="1010" y="680" as="targetPoint" />
          </mxGeometry>
        </mxCell>
        <mxCell id="JLhUXGUJFV2L9TylYYv--85" value="" style="endArrow=classic;html=1;rounded=0;entryX=1;entryY=1;entryDx=0;entryDy=0;exitX=0.5;exitY=0;exitDx=0;exitDy=0;startArrow=none;startFill=0;endFill=1;fillColor=#e3c800;strokeColor=#B09500;" edge="1" parent="1" target="GeOrMXXM5Ln6Xm9U8jmn-58">
          <mxGeometry width="50" height="50" relative="1" as="geometry">
            <mxPoint x="1190" y="720" as="sourcePoint" />
            <mxPoint x="1190" y="680" as="targetPoint" />
          </mxGeometry>
        </mxCell>
        <mxCell id="JLhUXGUJFV2L9TylYYv--86" value="" style="endArrow=classic;html=1;rounded=0;entryX=0;entryY=1;entryDx=0;entryDy=0;exitX=0.5;exitY=0;exitDx=0;exitDy=0;startArrow=none;startFill=0;endFill=1;fillColor=#e3c800;strokeColor=#B09500;" edge="1" parent="1" target="JLhUXGUJFV2L9TylYYv--10">
          <mxGeometry width="50" height="50" relative="1" as="geometry">
            <mxPoint x="1010" y="400" as="sourcePoint" />
            <mxPoint x="1010" y="360" as="targetPoint" />
          </mxGeometry>
        </mxCell>
        <mxCell id="JLhUXGUJFV2L9TylYYv--87" value="" style="endArrow=classic;html=1;rounded=0;entryX=1;entryY=1;entryDx=0;entryDy=0;exitX=0.5;exitY=0;exitDx=0;exitDy=0;startArrow=none;startFill=0;endFill=1;fillColor=#e3c800;strokeColor=#B09500;" edge="1" parent="1" target="JLhUXGUJFV2L9TylYYv--9">
          <mxGeometry width="50" height="50" relative="1" as="geometry">
            <mxPoint x="1190" y="400" as="sourcePoint" />
            <mxPoint x="1190" y="360" as="targetPoint" />
          </mxGeometry>
        </mxCell>
        <mxCell id="JLhUXGUJFV2L9TylYYv--90" value="" style="endArrow=none;html=1;rounded=0;entryX=0;entryY=0.5;entryDx=0;entryDy=0;exitX=0;exitY=0.5;exitDx=0;exitDy=0;startArrow=classic;startFill=1;endFill=0;fillColor=#6a00ff;strokeColor=#3700CC;" edge="1" parent="1">
          <mxGeometry width="50" height="50" relative="1" as="geometry">
            <mxPoint x="1200" y="320" as="sourcePoint" />
            <mxPoint x="1200" y="200" as="targetPoint" />
          </mxGeometry>
        </mxCell>
        <mxCell id="JLhUXGUJFV2L9TylYYv--91" value="" style="endArrow=none;html=1;rounded=0;entryX=0;entryY=0.5;entryDx=0;entryDy=0;exitX=0;exitY=0.5;exitDx=0;exitDy=0;startArrow=classic;startFill=1;endFill=0;fillColor=#6a00ff;strokeColor=#3700CC;" edge="1" parent="1">
          <mxGeometry width="50" height="50" relative="1" as="geometry">
            <mxPoint x="1080" y="320" as="sourcePoint" />
            <mxPoint x="1080" y="200" as="targetPoint" />
          </mxGeometry>
        </mxCell>
        <mxCell id="JLhUXGUJFV2L9TylYYv--92" value="" style="endArrow=classic;html=1;rounded=0;entryX=0;entryY=0.5;entryDx=0;entryDy=0;startArrow=none;startFill=0;endFill=1;fillColor=#6a00ff;strokeColor=#3700CC;exitX=0;exitY=0.5;exitDx=0;exitDy=0;" edge="1" parent="1">
          <mxGeometry width="50" height="50" relative="1" as="geometry">
            <mxPoint x="999.29" y="640" as="sourcePoint" />
            <mxPoint x="999.29" y="520" as="targetPoint" />
          </mxGeometry>
        </mxCell>
        <mxCell id="JLhUXGUJFV2L9TylYYv--93" value="" style="endArrow=classic;html=1;rounded=0;entryX=0;entryY=0.5;entryDx=0;entryDy=0;exitX=0;exitY=0.5;exitDx=0;exitDy=0;startArrow=none;startFill=0;endFill=1;fillColor=#6a00ff;strokeColor=#3700CC;" edge="1" parent="1">
          <mxGeometry width="50" height="50" relative="1" as="geometry">
            <mxPoint x="1119.29" y="640" as="sourcePoint" />
            <mxPoint x="1119.29" y="520" as="targetPoint" />
          </mxGeometry>
        </mxCell>
        <mxCell id="JLhUXGUJFV2L9TylYYv--94" value="" style="endArrow=none;html=1;rounded=0;entryX=0;entryY=0.5;entryDx=0;entryDy=0;exitX=0;exitY=0.5;exitDx=0;exitDy=0;startArrow=classic;startFill=1;endFill=0;fillColor=#6a00ff;strokeColor=#3700CC;" edge="1" parent="1">
          <mxGeometry width="50" height="50" relative="1" as="geometry">
            <mxPoint x="1199.29" y="640" as="sourcePoint" />
            <mxPoint x="1199.29" y="520" as="targetPoint" />
          </mxGeometry>
        </mxCell>
        <mxCell id="JLhUXGUJFV2L9TylYYv--95" value="" style="endArrow=none;html=1;rounded=0;entryX=0;entryY=0.5;entryDx=0;entryDy=0;exitX=0;exitY=0.5;exitDx=0;exitDy=0;startArrow=classic;startFill=1;endFill=0;fillColor=#6a00ff;strokeColor=#3700CC;" edge="1" parent="1">
          <mxGeometry width="50" height="50" relative="1" as="geometry">
            <mxPoint x="1079.29" y="640" as="sourcePoint" />
            <mxPoint x="1079.29" y="520" as="targetPoint" />
          </mxGeometry>
        </mxCell>
        <mxCell id="JLhUXGUJFV2L9TylYYv--96" value="" style="endArrow=classic;html=1;rounded=0;entryX=0;entryY=0.5;entryDx=0;entryDy=0;startArrow=none;startFill=0;endFill=1;fillColor=#6a00ff;strokeColor=#3700CC;exitX=0;exitY=0.5;exitDx=0;exitDy=0;" edge="1" parent="1">
          <mxGeometry width="50" height="50" relative="1" as="geometry">
            <mxPoint x="1000" y="960" as="sourcePoint" />
            <mxPoint x="1000" y="840" as="targetPoint" />
          </mxGeometry>
        </mxCell>
        <mxCell id="JLhUXGUJFV2L9TylYYv--97" value="" style="endArrow=classic;html=1;rounded=0;entryX=0;entryY=0.5;entryDx=0;entryDy=0;exitX=0;exitY=0.5;exitDx=0;exitDy=0;startArrow=none;startFill=0;endFill=1;fillColor=#6a00ff;strokeColor=#3700CC;" edge="1" parent="1">
          <mxGeometry width="50" height="50" relative="1" as="geometry">
            <mxPoint x="1120" y="960" as="sourcePoint" />
            <mxPoint x="1120" y="840" as="targetPoint" />
          </mxGeometry>
        </mxCell>
        <mxCell id="JLhUXGUJFV2L9TylYYv--98" value="" style="endArrow=none;html=1;rounded=0;entryX=0;entryY=0.5;entryDx=0;entryDy=0;exitX=0;exitY=0.5;exitDx=0;exitDy=0;startArrow=classic;startFill=1;endFill=0;fillColor=#6a00ff;strokeColor=#3700CC;" edge="1" parent="1">
          <mxGeometry width="50" height="50" relative="1" as="geometry">
            <mxPoint x="1200" y="960" as="sourcePoint" />
            <mxPoint x="1200" y="840" as="targetPoint" />
          </mxGeometry>
        </mxCell>
        <mxCell id="JLhUXGUJFV2L9TylYYv--99" value="" style="endArrow=none;html=1;rounded=0;entryX=0;entryY=0.5;entryDx=0;entryDy=0;exitX=0;exitY=0.5;exitDx=0;exitDy=0;startArrow=classic;startFill=1;endFill=0;fillColor=#6a00ff;strokeColor=#3700CC;" edge="1" parent="1">
          <mxGeometry width="50" height="50" relative="1" as="geometry">
            <mxPoint x="1080" y="960" as="sourcePoint" />
            <mxPoint x="1080" y="840" as="targetPoint" />
          </mxGeometry>
        </mxCell>
        <mxCell id="JLhUXGUJFV2L9TylYYv--100" value="" style="endArrow=classic;html=1;rounded=0;entryX=0;entryY=0.5;entryDx=0;entryDy=0;startArrow=none;startFill=0;endFill=1;fillColor=#6a00ff;strokeColor=#3700CC;exitX=0;exitY=0.5;exitDx=0;exitDy=0;" edge="1" parent="1">
          <mxGeometry width="50" height="50" relative="1" as="geometry">
            <mxPoint x="1240" y="320" as="sourcePoint" />
            <mxPoint x="1240" y="200" as="targetPoint" />
          </mxGeometry>
        </mxCell>
        <mxCell id="JLhUXGUJFV2L9TylYYv--101" value="" style="endArrow=classic;html=1;rounded=0;entryX=0;entryY=0.5;entryDx=0;entryDy=0;exitX=0;exitY=0.5;exitDx=0;exitDy=0;startArrow=none;startFill=0;endFill=1;fillColor=#6a00ff;strokeColor=#3700CC;" edge="1" parent="1">
          <mxGeometry width="50" height="50" relative="1" as="geometry">
            <mxPoint x="1360" y="320" as="sourcePoint" />
            <mxPoint x="1360" y="200" as="targetPoint" />
          </mxGeometry>
        </mxCell>
        <mxCell id="JLhUXGUJFV2L9TylYYv--102" value="" style="endArrow=none;html=1;rounded=0;entryX=0;entryY=0.5;entryDx=0;entryDy=0;exitX=0;exitY=0.5;exitDx=0;exitDy=0;startArrow=classic;startFill=1;endFill=0;fillColor=#6a00ff;strokeColor=#3700CC;" edge="1" parent="1">
          <mxGeometry width="50" height="50" relative="1" as="geometry">
            <mxPoint x="1440" y="320" as="sourcePoint" />
            <mxPoint x="1440" y="200" as="targetPoint" />
          </mxGeometry>
        </mxCell>
        <mxCell id="JLhUXGUJFV2L9TylYYv--103" value="" style="endArrow=none;html=1;rounded=0;entryX=0;entryY=0.5;entryDx=0;entryDy=0;exitX=0;exitY=0.5;exitDx=0;exitDy=0;startArrow=classic;startFill=1;endFill=0;fillColor=#6a00ff;strokeColor=#3700CC;" edge="1" parent="1">
          <mxGeometry width="50" height="50" relative="1" as="geometry">
            <mxPoint x="1320" y="320" as="sourcePoint" />
            <mxPoint x="1320" y="200" as="targetPoint" />
          </mxGeometry>
        </mxCell>
        <mxCell id="JLhUXGUJFV2L9TylYYv--104" value="" style="endArrow=classic;html=1;rounded=0;entryX=0;entryY=0.5;entryDx=0;entryDy=0;startArrow=none;startFill=0;endFill=1;fillColor=#6a00ff;strokeColor=#3700CC;exitX=0;exitY=0.5;exitDx=0;exitDy=0;" edge="1" parent="1">
          <mxGeometry width="50" height="50" relative="1" as="geometry">
            <mxPoint x="1239.29" y="640" as="sourcePoint" />
            <mxPoint x="1239.29" y="520" as="targetPoint" />
          </mxGeometry>
        </mxCell>
        <mxCell id="JLhUXGUJFV2L9TylYYv--105" value="" style="endArrow=classic;html=1;rounded=0;entryX=0;entryY=0.5;entryDx=0;entryDy=0;exitX=0;exitY=0.5;exitDx=0;exitDy=0;startArrow=none;startFill=0;endFill=1;fillColor=#6a00ff;strokeColor=#3700CC;" edge="1" parent="1">
          <mxGeometry width="50" height="50" relative="1" as="geometry">
            <mxPoint x="1359.29" y="640" as="sourcePoint" />
            <mxPoint x="1359.29" y="520" as="targetPoint" />
          </mxGeometry>
        </mxCell>
        <mxCell id="JLhUXGUJFV2L9TylYYv--106" value="" style="endArrow=none;html=1;rounded=0;entryX=0;entryY=0.5;entryDx=0;entryDy=0;exitX=0;exitY=0.5;exitDx=0;exitDy=0;startArrow=classic;startFill=1;endFill=0;fillColor=#6a00ff;strokeColor=#3700CC;" edge="1" parent="1">
          <mxGeometry width="50" height="50" relative="1" as="geometry">
            <mxPoint x="1439.29" y="640" as="sourcePoint" />
            <mxPoint x="1439.29" y="520" as="targetPoint" />
          </mxGeometry>
        </mxCell>
        <mxCell id="JLhUXGUJFV2L9TylYYv--107" value="" style="endArrow=none;html=1;rounded=0;entryX=0;entryY=0.5;entryDx=0;entryDy=0;exitX=0;exitY=0.5;exitDx=0;exitDy=0;startArrow=classic;startFill=1;endFill=0;fillColor=#6a00ff;strokeColor=#3700CC;" edge="1" parent="1">
          <mxGeometry width="50" height="50" relative="1" as="geometry">
            <mxPoint x="1319.29" y="640" as="sourcePoint" />
            <mxPoint x="1319.29" y="520" as="targetPoint" />
          </mxGeometry>
        </mxCell>
        <mxCell id="JLhUXGUJFV2L9TylYYv--108" value="" style="endArrow=classic;html=1;rounded=0;entryX=0;entryY=0.5;entryDx=0;entryDy=0;startArrow=none;startFill=0;endFill=1;fillColor=#6a00ff;strokeColor=#3700CC;exitX=0;exitY=0.5;exitDx=0;exitDy=0;" edge="1" parent="1">
          <mxGeometry width="50" height="50" relative="1" as="geometry">
            <mxPoint x="1240" y="960" as="sourcePoint" />
            <mxPoint x="1240" y="840" as="targetPoint" />
          </mxGeometry>
        </mxCell>
        <mxCell id="JLhUXGUJFV2L9TylYYv--109" value="" style="endArrow=classic;html=1;rounded=0;entryX=0;entryY=0.5;entryDx=0;entryDy=0;exitX=0;exitY=0.5;exitDx=0;exitDy=0;startArrow=none;startFill=0;endFill=1;fillColor=#6a00ff;strokeColor=#3700CC;" edge="1" parent="1">
          <mxGeometry width="50" height="50" relative="1" as="geometry">
            <mxPoint x="1360" y="960" as="sourcePoint" />
            <mxPoint x="1360" y="840" as="targetPoint" />
          </mxGeometry>
        </mxCell>
        <mxCell id="JLhUXGUJFV2L9TylYYv--110" value="" style="endArrow=none;html=1;rounded=0;entryX=0;entryY=0.5;entryDx=0;entryDy=0;exitX=0;exitY=0.5;exitDx=0;exitDy=0;startArrow=classic;startFill=1;endFill=0;fillColor=#6a00ff;strokeColor=#3700CC;" edge="1" parent="1">
          <mxGeometry width="50" height="50" relative="1" as="geometry">
            <mxPoint x="1440" y="960" as="sourcePoint" />
            <mxPoint x="1440" y="840" as="targetPoint" />
          </mxGeometry>
        </mxCell>
        <mxCell id="JLhUXGUJFV2L9TylYYv--111" value="" style="endArrow=none;html=1;rounded=0;entryX=0;entryY=0.5;entryDx=0;entryDy=0;exitX=0;exitY=0.5;exitDx=0;exitDy=0;startArrow=classic;startFill=1;endFill=0;fillColor=#6a00ff;strokeColor=#3700CC;" edge="1" parent="1">
          <mxGeometry width="50" height="50" relative="1" as="geometry">
            <mxPoint x="1320" y="960" as="sourcePoint" />
            <mxPoint x="1320" y="840" as="targetPoint" />
          </mxGeometry>
        </mxCell>
        <mxCell id="JLhUXGUJFV2L9TylYYv--113" value="" style="endArrow=none;html=1;rounded=0;entryX=0.5;entryY=1;entryDx=0;entryDy=0;exitX=0;exitY=0;exitDx=0;exitDy=0;startArrow=classic;startFill=1;endFill=0;fillColor=#e3c800;strokeColor=#B09500;" edge="1" parent="1" source="GeOrMXXM5Ln6Xm9U8jmn-68">
          <mxGeometry width="50" height="50" relative="1" as="geometry">
            <mxPoint x="1010" y="800" as="sourcePoint" />
            <mxPoint x="1010" y="760" as="targetPoint" />
          </mxGeometry>
        </mxCell>
        <mxCell id="JLhUXGUJFV2L9TylYYv--115" value="" style="endArrow=none;html=1;rounded=0;entryX=0.5;entryY=1;entryDx=0;entryDy=0;exitX=1;exitY=0;exitDx=0;exitDy=0;startArrow=classic;startFill=1;endFill=0;fillColor=#e3c800;strokeColor=#B09500;" edge="1" parent="1" source="GeOrMXXM5Ln6Xm9U8jmn-69">
          <mxGeometry width="50" height="50" relative="1" as="geometry">
            <mxPoint x="1190" y="800" as="sourcePoint" />
            <mxPoint x="1190" y="760" as="targetPoint" />
          </mxGeometry>
        </mxCell>
        <mxCell id="JLhUXGUJFV2L9TylYYv--116" value="" style="endArrow=none;html=1;rounded=0;entryX=0.5;entryY=1;entryDx=0;entryDy=0;exitX=0;exitY=0;exitDx=0;exitDy=0;startArrow=classic;startFill=1;endFill=0;fillColor=#e3c800;strokeColor=#B09500;" edge="1" parent="1">
          <mxGeometry width="50" height="50" relative="1" as="geometry">
            <mxPoint x="1012" y="491.5" as="sourcePoint" />
            <mxPoint x="1010" y="439.5" as="targetPoint" />
          </mxGeometry>
        </mxCell>
        <mxCell id="JLhUXGUJFV2L9TylYYv--117" value="" style="endArrow=none;html=1;rounded=0;entryX=0.5;entryY=1;entryDx=0;entryDy=0;exitX=1;exitY=0;exitDx=0;exitDy=0;startArrow=classic;startFill=1;endFill=0;fillColor=#e3c800;strokeColor=#B09500;" edge="1" parent="1">
          <mxGeometry width="50" height="50" relative="1" as="geometry">
            <mxPoint x="1188" y="491.5" as="sourcePoint" />
            <mxPoint x="1190" y="439.5" as="targetPoint" />
          </mxGeometry>
        </mxCell>
        <mxCell id="JLhUXGUJFV2L9TylYYv--118" value="" style="endArrow=classic;html=1;rounded=0;entryX=0;entryY=1;entryDx=0;entryDy=0;exitX=0.5;exitY=0;exitDx=0;exitDy=0;startArrow=none;startFill=0;endFill=1;fillColor=#e3c800;strokeColor=#B09500;" edge="1" parent="1">
          <mxGeometry width="50" height="50" relative="1" as="geometry">
            <mxPoint x="1250" y="399.75" as="sourcePoint" />
            <mxPoint x="1252" y="347.75" as="targetPoint" />
          </mxGeometry>
        </mxCell>
        <mxCell id="JLhUXGUJFV2L9TylYYv--119" value="" style="endArrow=classic;html=1;rounded=0;entryX=1;entryY=1;entryDx=0;entryDy=0;exitX=0.5;exitY=0;exitDx=0;exitDy=0;startArrow=none;startFill=0;endFill=1;fillColor=#e3c800;strokeColor=#B09500;" edge="1" parent="1">
          <mxGeometry width="50" height="50" relative="1" as="geometry">
            <mxPoint x="1430" y="399.75" as="sourcePoint" />
            <mxPoint x="1428" y="347.75" as="targetPoint" />
          </mxGeometry>
        </mxCell>
        <mxCell id="JLhUXGUJFV2L9TylYYv--120" value="" style="endArrow=none;html=1;rounded=0;entryX=0.5;entryY=1;entryDx=0;entryDy=0;exitX=0;exitY=0;exitDx=0;exitDy=0;startArrow=classic;startFill=1;endFill=0;fillColor=#e3c800;strokeColor=#B09500;" edge="1" parent="1">
          <mxGeometry width="50" height="50" relative="1" as="geometry">
            <mxPoint x="1252" y="491.25" as="sourcePoint" />
            <mxPoint x="1250" y="439.25" as="targetPoint" />
          </mxGeometry>
        </mxCell>
        <mxCell id="JLhUXGUJFV2L9TylYYv--121" value="" style="endArrow=none;html=1;rounded=0;entryX=0.5;entryY=1;entryDx=0;entryDy=0;exitX=1;exitY=0;exitDx=0;exitDy=0;startArrow=classic;startFill=1;endFill=0;fillColor=#e3c800;strokeColor=#B09500;" edge="1" parent="1">
          <mxGeometry width="50" height="50" relative="1" as="geometry">
            <mxPoint x="1428" y="491.25" as="sourcePoint" />
            <mxPoint x="1430" y="439.25" as="targetPoint" />
          </mxGeometry>
        </mxCell>
        <mxCell id="JLhUXGUJFV2L9TylYYv--122" value="" style="endArrow=none;html=1;rounded=0;entryX=0.5;entryY=1;entryDx=0;entryDy=0;exitX=0;exitY=0;exitDx=0;exitDy=0;startArrow=classic;startFill=1;endFill=0;fillColor=#e3c800;strokeColor=#B09500;" edge="1" parent="1">
          <mxGeometry width="50" height="50" relative="1" as="geometry">
            <mxPoint x="1012" y="172.25" as="sourcePoint" />
            <mxPoint x="1010" y="120.25" as="targetPoint" />
          </mxGeometry>
        </mxCell>
        <mxCell id="JLhUXGUJFV2L9TylYYv--123" value="" style="endArrow=none;html=1;rounded=0;entryX=0.5;entryY=1;entryDx=0;entryDy=0;exitX=1;exitY=0;exitDx=0;exitDy=0;startArrow=classic;startFill=1;endFill=0;fillColor=#e3c800;strokeColor=#B09500;" edge="1" parent="1">
          <mxGeometry width="50" height="50" relative="1" as="geometry">
            <mxPoint x="1188" y="172.25" as="sourcePoint" />
            <mxPoint x="1190" y="120.25" as="targetPoint" />
          </mxGeometry>
        </mxCell>
        <mxCell id="JLhUXGUJFV2L9TylYYv--124" value="" style="endArrow=none;html=1;rounded=0;entryX=0.5;entryY=1;entryDx=0;entryDy=0;exitX=0;exitY=0;exitDx=0;exitDy=0;startArrow=classic;startFill=1;endFill=0;fillColor=#e3c800;strokeColor=#B09500;" edge="1" parent="1">
          <mxGeometry width="50" height="50" relative="1" as="geometry">
            <mxPoint x="1252" y="172" as="sourcePoint" />
            <mxPoint x="1250" y="120" as="targetPoint" />
          </mxGeometry>
        </mxCell>
        <mxCell id="JLhUXGUJFV2L9TylYYv--125" value="" style="endArrow=none;html=1;rounded=0;entryX=0.5;entryY=1;entryDx=0;entryDy=0;exitX=1;exitY=0;exitDx=0;exitDy=0;startArrow=classic;startFill=1;endFill=0;fillColor=#e3c800;strokeColor=#B09500;" edge="1" parent="1">
          <mxGeometry width="50" height="50" relative="1" as="geometry">
            <mxPoint x="1428" y="172" as="sourcePoint" />
            <mxPoint x="1430" y="120" as="targetPoint" />
          </mxGeometry>
        </mxCell>
        <mxCell id="JLhUXGUJFV2L9TylYYv--131" value="" style="rounded=0;whiteSpace=wrap;html=1;" vertex="1" parent="1">
          <mxGeometry x="1080" y="400" width="40" height="40" as="geometry" />
        </mxCell>
        <mxCell id="JLhUXGUJFV2L9TylYYv--132" value="" style="triangle;whiteSpace=wrap;html=1;rotation=-180;" vertex="1" parent="1">
          <mxGeometry x="1060" y="400.5" width="20" height="39" as="geometry" />
        </mxCell>
        <mxCell id="JLhUXGUJFV2L9TylYYv--133" value="" style="triangle;whiteSpace=wrap;html=1;rotation=0;" vertex="1" parent="1">
          <mxGeometry x="1000" y="400.5" width="20" height="39" as="geometry" />
        </mxCell>
        <mxCell id="JLhUXGUJFV2L9TylYYv--134" value="" style="triangle;whiteSpace=wrap;html=1;rotation=-180;" vertex="1" parent="1">
          <mxGeometry x="1180" y="400.5" width="20" height="39" as="geometry" />
        </mxCell>
        <mxCell id="JLhUXGUJFV2L9TylYYv--135" value="" style="triangle;whiteSpace=wrap;html=1;rotation=0;" vertex="1" parent="1">
          <mxGeometry x="1120" y="400" width="20" height="39" as="geometry" />
        </mxCell>
        <mxCell id="JLhUXGUJFV2L9TylYYv--156" value="" style="rounded=0;whiteSpace=wrap;html=1;" vertex="1" parent="1">
          <mxGeometry x="1320" y="79.5" width="40" height="40" as="geometry" />
        </mxCell>
        <mxCell id="JLhUXGUJFV2L9TylYYv--157" value="" style="triangle;whiteSpace=wrap;html=1;rotation=-180;" vertex="1" parent="1">
          <mxGeometry x="1300" y="80" width="20" height="39" as="geometry" />
        </mxCell>
        <mxCell id="JLhUXGUJFV2L9TylYYv--158" value="" style="triangle;whiteSpace=wrap;html=1;rotation=0;" vertex="1" parent="1">
          <mxGeometry x="1240" y="80" width="20" height="39" as="geometry" />
        </mxCell>
        <mxCell id="JLhUXGUJFV2L9TylYYv--159" value="" style="triangle;whiteSpace=wrap;html=1;rotation=-180;" vertex="1" parent="1">
          <mxGeometry x="1420" y="80" width="20" height="39" as="geometry" />
        </mxCell>
        <mxCell id="JLhUXGUJFV2L9TylYYv--160" value="" style="triangle;whiteSpace=wrap;html=1;rotation=0;" vertex="1" parent="1">
          <mxGeometry x="1360" y="79.5" width="20" height="39" as="geometry" />
        </mxCell>
        <mxCell id="JLhUXGUJFV2L9TylYYv--161" value="" style="rounded=0;whiteSpace=wrap;html=1;" vertex="1" parent="1">
          <mxGeometry x="1080" y="80" width="40" height="40" as="geometry" />
        </mxCell>
        <mxCell id="JLhUXGUJFV2L9TylYYv--162" value="" style="triangle;whiteSpace=wrap;html=1;rotation=-180;" vertex="1" parent="1">
          <mxGeometry x="1060" y="80.5" width="20" height="39" as="geometry" />
        </mxCell>
        <mxCell id="JLhUXGUJFV2L9TylYYv--163" value="" style="triangle;whiteSpace=wrap;html=1;rotation=0;" vertex="1" parent="1">
          <mxGeometry x="1000" y="80.5" width="20" height="39" as="geometry" />
        </mxCell>
        <mxCell id="JLhUXGUJFV2L9TylYYv--164" value="" style="triangle;whiteSpace=wrap;html=1;rotation=-180;" vertex="1" parent="1">
          <mxGeometry x="1180" y="80.5" width="20" height="39" as="geometry" />
        </mxCell>
        <mxCell id="JLhUXGUJFV2L9TylYYv--165" value="" style="triangle;whiteSpace=wrap;html=1;rotation=0;" vertex="1" parent="1">
          <mxGeometry x="1120" y="80" width="20" height="39" as="geometry" />
        </mxCell>
        <mxCell id="JLhUXGUJFV2L9TylYYv--166" value="" style="rounded=0;whiteSpace=wrap;html=1;" vertex="1" parent="1">
          <mxGeometry x="1320" y="720" width="40" height="40" as="geometry" />
        </mxCell>
        <mxCell id="JLhUXGUJFV2L9TylYYv--167" value="" style="triangle;whiteSpace=wrap;html=1;rotation=-180;" vertex="1" parent="1">
          <mxGeometry x="1300" y="720.5" width="20" height="39" as="geometry" />
        </mxCell>
        <mxCell id="JLhUXGUJFV2L9TylYYv--168" value="" style="triangle;whiteSpace=wrap;html=1;rotation=0;" vertex="1" parent="1">
          <mxGeometry x="1240" y="720.5" width="20" height="39" as="geometry" />
        </mxCell>
        <mxCell id="JLhUXGUJFV2L9TylYYv--169" value="" style="triangle;whiteSpace=wrap;html=1;rotation=-180;" vertex="1" parent="1">
          <mxGeometry x="1420" y="720.5" width="20" height="39" as="geometry" />
        </mxCell>
        <mxCell id="JLhUXGUJFV2L9TylYYv--170" value="" style="triangle;whiteSpace=wrap;html=1;rotation=0;" vertex="1" parent="1">
          <mxGeometry x="1360" y="720" width="20" height="39" as="geometry" />
        </mxCell>
        <mxCell id="JLhUXGUJFV2L9TylYYv--171" value="" style="rounded=0;whiteSpace=wrap;html=1;" vertex="1" parent="1">
          <mxGeometry x="1080" y="720.5" width="40" height="40" as="geometry" />
        </mxCell>
        <mxCell id="JLhUXGUJFV2L9TylYYv--172" value="" style="triangle;whiteSpace=wrap;html=1;rotation=-180;" vertex="1" parent="1">
          <mxGeometry x="1060" y="721" width="20" height="39" as="geometry" />
        </mxCell>
        <mxCell id="JLhUXGUJFV2L9TylYYv--173" value="" style="triangle;whiteSpace=wrap;html=1;rotation=0;" vertex="1" parent="1">
          <mxGeometry x="1000" y="721" width="20" height="39" as="geometry" />
        </mxCell>
        <mxCell id="JLhUXGUJFV2L9TylYYv--174" value="" style="triangle;whiteSpace=wrap;html=1;rotation=-180;" vertex="1" parent="1">
          <mxGeometry x="1180" y="721" width="20" height="39" as="geometry" />
        </mxCell>
        <mxCell id="JLhUXGUJFV2L9TylYYv--175" value="" style="triangle;whiteSpace=wrap;html=1;rotation=0;" vertex="1" parent="1">
          <mxGeometry x="1120" y="720.5" width="20" height="39" as="geometry" />
        </mxCell>
        <mxCell id="JLhUXGUJFV2L9TylYYv--176" value="" style="rounded=0;whiteSpace=wrap;html=1;" vertex="1" parent="1">
          <mxGeometry x="1320" y="1040" width="40" height="40" as="geometry" />
        </mxCell>
        <mxCell id="JLhUXGUJFV2L9TylYYv--177" value="" style="triangle;whiteSpace=wrap;html=1;rotation=-180;" vertex="1" parent="1">
          <mxGeometry x="1300" y="1040.5" width="20" height="39" as="geometry" />
        </mxCell>
        <mxCell id="JLhUXGUJFV2L9TylYYv--178" value="" style="triangle;whiteSpace=wrap;html=1;rotation=0;" vertex="1" parent="1">
          <mxGeometry x="1240" y="1040.5" width="20" height="39" as="geometry" />
        </mxCell>
        <mxCell id="JLhUXGUJFV2L9TylYYv--179" value="" style="triangle;whiteSpace=wrap;html=1;rotation=-180;" vertex="1" parent="1">
          <mxGeometry x="1420" y="1040.5" width="20" height="39" as="geometry" />
        </mxCell>
        <mxCell id="JLhUXGUJFV2L9TylYYv--180" value="" style="triangle;whiteSpace=wrap;html=1;rotation=0;" vertex="1" parent="1">
          <mxGeometry x="1360" y="1040" width="20" height="39" as="geometry" />
        </mxCell>
        <mxCell id="JLhUXGUJFV2L9TylYYv--181" value="" style="rounded=0;whiteSpace=wrap;html=1;" vertex="1" parent="1">
          <mxGeometry x="1080" y="1040.5" width="40" height="40" as="geometry" />
        </mxCell>
        <mxCell id="JLhUXGUJFV2L9TylYYv--182" value="" style="triangle;whiteSpace=wrap;html=1;rotation=-180;" vertex="1" parent="1">
          <mxGeometry x="1060" y="1041" width="20" height="39" as="geometry" />
        </mxCell>
        <mxCell id="JLhUXGUJFV2L9TylYYv--183" value="" style="triangle;whiteSpace=wrap;html=1;rotation=0;" vertex="1" parent="1">
          <mxGeometry x="1000" y="1041" width="20" height="39" as="geometry" />
        </mxCell>
        <mxCell id="JLhUXGUJFV2L9TylYYv--184" value="" style="triangle;whiteSpace=wrap;html=1;rotation=-180;" vertex="1" parent="1">
          <mxGeometry x="1180" y="1041" width="20" height="39" as="geometry" />
        </mxCell>
        <mxCell id="JLhUXGUJFV2L9TylYYv--185" value="" style="triangle;whiteSpace=wrap;html=1;rotation=0;" vertex="1" parent="1">
          <mxGeometry x="1120" y="1040.5" width="20" height="39" as="geometry" />
        </mxCell>
        <mxCell id="JLhUXGUJFV2L9TylYYv--186" value="" style="shape=trapezoid;perimeter=trapezoidPerimeter;whiteSpace=wrap;html=1;fixedSize=1;size=10;fillColor=#f5f5f5;strokeColor=#666666;fontColor=#333333;" vertex="1" parent="1">
          <mxGeometry x="1020" y="721" width="40" height="39" as="geometry" />
        </mxCell>
        <mxCell id="JLhUXGUJFV2L9TylYYv--187" value="" style="shape=trapezoid;perimeter=trapezoidPerimeter;whiteSpace=wrap;html=1;fixedSize=1;size=10;fillColor=#f5f5f5;strokeColor=#666666;fontColor=#333333;" vertex="1" parent="1">
          <mxGeometry x="1140" y="720" width="40" height="39" as="geometry" />
        </mxCell>
        <mxCell id="JLhUXGUJFV2L9TylYYv--188" value="" style="shape=trapezoid;perimeter=trapezoidPerimeter;whiteSpace=wrap;html=1;fixedSize=1;size=10;fillColor=#f5f5f5;strokeColor=#666666;fontColor=#333333;" vertex="1" parent="1">
          <mxGeometry x="1260" y="720" width="40" height="39" as="geometry" />
        </mxCell>
        <mxCell id="JLhUXGUJFV2L9TylYYv--189" value="" style="shape=trapezoid;perimeter=trapezoidPerimeter;whiteSpace=wrap;html=1;fixedSize=1;size=10;fillColor=#f5f5f5;strokeColor=#666666;fontColor=#333333;" vertex="1" parent="1">
          <mxGeometry x="1380" y="720" width="40" height="39" as="geometry" />
        </mxCell>
        <mxCell id="JLhUXGUJFV2L9TylYYv--191" value="" style="shape=trapezoid;perimeter=trapezoidPerimeter;whiteSpace=wrap;html=1;fixedSize=1;size=10;fillColor=#f5f5f5;strokeColor=#666666;fontColor=#333333;" vertex="1" parent="1">
          <mxGeometry x="1020" y="401.5" width="40" height="39" as="geometry" />
        </mxCell>
        <mxCell id="JLhUXGUJFV2L9TylYYv--192" value="" style="shape=trapezoid;perimeter=trapezoidPerimeter;whiteSpace=wrap;html=1;fixedSize=1;size=10;fillColor=#f5f5f5;strokeColor=#666666;fontColor=#333333;" vertex="1" parent="1">
          <mxGeometry x="1140" y="400.5" width="40" height="39" as="geometry" />
        </mxCell>
        <mxCell id="JLhUXGUJFV2L9TylYYv--193" value="" style="shape=trapezoid;perimeter=trapezoidPerimeter;whiteSpace=wrap;html=1;fixedSize=1;size=10;fillColor=#f5f5f5;strokeColor=#666666;fontColor=#333333;" vertex="1" parent="1">
          <mxGeometry x="1260" y="400.5" width="40" height="39" as="geometry" />
        </mxCell>
        <mxCell id="JLhUXGUJFV2L9TylYYv--194" value="" style="shape=trapezoid;perimeter=trapezoidPerimeter;whiteSpace=wrap;html=1;fixedSize=1;size=10;fillColor=#f5f5f5;strokeColor=#666666;fontColor=#333333;" vertex="1" parent="1">
          <mxGeometry x="1380" y="400.5" width="40" height="39" as="geometry" />
        </mxCell>
        <mxCell id="JLhUXGUJFV2L9TylYYv--195" value="" style="shape=trapezoid;perimeter=trapezoidPerimeter;whiteSpace=wrap;html=1;fixedSize=1;size=10;fillColor=#f5f5f5;strokeColor=#666666;fontColor=#333333;" vertex="1" parent="1">
          <mxGeometry x="1020" y="1040" width="40" height="39" as="geometry" />
        </mxCell>
        <mxCell id="JLhUXGUJFV2L9TylYYv--196" value="" style="shape=trapezoid;perimeter=trapezoidPerimeter;whiteSpace=wrap;html=1;fixedSize=1;size=10;fillColor=#f5f5f5;strokeColor=#666666;fontColor=#333333;" vertex="1" parent="1">
          <mxGeometry x="1140" y="1039" width="40" height="39" as="geometry" />
        </mxCell>
        <mxCell id="JLhUXGUJFV2L9TylYYv--197" value="" style="shape=trapezoid;perimeter=trapezoidPerimeter;whiteSpace=wrap;html=1;fixedSize=1;size=10;fillColor=#f5f5f5;strokeColor=#666666;fontColor=#333333;" vertex="1" parent="1">
          <mxGeometry x="1260" y="1039" width="40" height="39" as="geometry" />
        </mxCell>
        <mxCell id="JLhUXGUJFV2L9TylYYv--198" value="" style="shape=trapezoid;perimeter=trapezoidPerimeter;whiteSpace=wrap;html=1;fixedSize=1;size=10;fillColor=#f5f5f5;strokeColor=#666666;fontColor=#333333;" vertex="1" parent="1">
          <mxGeometry x="1380" y="1039" width="40" height="39" as="geometry" />
        </mxCell>
        <mxCell id="JLhUXGUJFV2L9TylYYv--199" value="" style="shape=trapezoid;perimeter=trapezoidPerimeter;whiteSpace=wrap;html=1;fixedSize=1;size=10;fillColor=#f5f5f5;strokeColor=#666666;fontColor=#333333;" vertex="1" parent="1">
          <mxGeometry x="1020" y="80.5" width="40" height="39" as="geometry" />
        </mxCell>
        <mxCell id="JLhUXGUJFV2L9TylYYv--200" value="" style="shape=trapezoid;perimeter=trapezoidPerimeter;whiteSpace=wrap;html=1;fixedSize=1;size=10;fillColor=#f5f5f5;strokeColor=#666666;fontColor=#333333;" vertex="1" parent="1">
          <mxGeometry x="1140" y="79.5" width="40" height="39" as="geometry" />
        </mxCell>
        <mxCell id="JLhUXGUJFV2L9TylYYv--201" value="" style="shape=trapezoid;perimeter=trapezoidPerimeter;whiteSpace=wrap;html=1;fixedSize=1;size=10;fillColor=#f5f5f5;strokeColor=#666666;fontColor=#333333;" vertex="1" parent="1">
          <mxGeometry x="1260" y="79.5" width="40" height="39" as="geometry" />
        </mxCell>
        <mxCell id="JLhUXGUJFV2L9TylYYv--202" value="" style="shape=trapezoid;perimeter=trapezoidPerimeter;whiteSpace=wrap;html=1;fixedSize=1;size=10;fillColor=#f5f5f5;strokeColor=#666666;fontColor=#333333;" vertex="1" parent="1">
          <mxGeometry x="1380" y="79.5" width="40" height="39" as="geometry" />
        </mxCell>
        <mxCell id="JLhUXGUJFV2L9TylYYv--204" value="" style="endArrow=none;html=1;rounded=0;entryX=0;entryY=0.5;entryDx=0;entryDy=0;exitX=0.5;exitY=0;exitDx=0;exitDy=0;startArrow=classic;startFill=1;endFill=0;fillColor=#6a00ff;strokeColor=#3700CC;" edge="1" parent="1" source="JLhUXGUJFV2L9TylYYv--191">
          <mxGeometry width="50" height="50" relative="1" as="geometry">
            <mxPoint x="1039.41" y="480" as="sourcePoint" />
            <mxPoint x="1039.41" y="360" as="targetPoint" />
          </mxGeometry>
        </mxCell>
        <mxCell id="JLhUXGUJFV2L9TylYYv--205" value="" style="endArrow=none;html=1;rounded=0;entryX=0;entryY=0.5;entryDx=0;entryDy=0;exitX=0.5;exitY=0;exitDx=0;exitDy=0;startArrow=classic;startFill=1;endFill=0;fillColor=#6a00ff;strokeColor=#3700CC;" edge="1" parent="1">
          <mxGeometry width="50" height="50" relative="1" as="geometry">
            <mxPoint x="1040.29" y="482.5" as="sourcePoint" />
            <mxPoint x="1039.7" y="440.5" as="targetPoint" />
          </mxGeometry>
        </mxCell>
        <mxCell id="JLhUXGUJFV2L9TylYYv--206" value="" style="endArrow=none;html=1;rounded=0;entryX=0;entryY=0.5;entryDx=0;entryDy=0;exitX=0.5;exitY=0;exitDx=0;exitDy=0;startArrow=classic;startFill=1;endFill=0;fillColor=#6a00ff;strokeColor=#3700CC;" edge="1" parent="1">
          <mxGeometry width="50" height="50" relative="1" as="geometry">
            <mxPoint x="1160.11" y="402" as="sourcePoint" />
            <mxPoint x="1159.52" y="360" as="targetPoint" />
          </mxGeometry>
        </mxCell>
        <mxCell id="JLhUXGUJFV2L9TylYYv--207" value="" style="endArrow=none;html=1;rounded=0;entryX=0;entryY=0.5;entryDx=0;entryDy=0;exitX=0.5;exitY=0;exitDx=0;exitDy=0;startArrow=classic;startFill=1;endFill=0;fillColor=#6a00ff;strokeColor=#3700CC;" edge="1" parent="1">
          <mxGeometry width="50" height="50" relative="1" as="geometry">
            <mxPoint x="1160.3999999999999" y="482.5" as="sourcePoint" />
            <mxPoint x="1159.81" y="440.5" as="targetPoint" />
          </mxGeometry>
        </mxCell>
        <mxCell id="JLhUXGUJFV2L9TylYYv--208" value="" style="endArrow=none;html=1;rounded=0;entryX=0;entryY=0.5;entryDx=0;entryDy=0;exitX=0.5;exitY=0;exitDx=0;exitDy=0;startArrow=classic;startFill=1;endFill=0;fillColor=#6a00ff;strokeColor=#3700CC;" edge="1" parent="1">
          <mxGeometry width="50" height="50" relative="1" as="geometry">
            <mxPoint x="1280.1100000000001" y="400.25" as="sourcePoint" />
            <mxPoint x="1279.52" y="358.25" as="targetPoint" />
          </mxGeometry>
        </mxCell>
        <mxCell id="JLhUXGUJFV2L9TylYYv--209" value="" style="endArrow=none;html=1;rounded=0;entryX=0;entryY=0.5;entryDx=0;entryDy=0;exitX=0.5;exitY=0;exitDx=0;exitDy=0;startArrow=classic;startFill=1;endFill=0;fillColor=#6a00ff;strokeColor=#3700CC;" edge="1" parent="1">
          <mxGeometry width="50" height="50" relative="1" as="geometry">
            <mxPoint x="1280.4" y="480.75" as="sourcePoint" />
            <mxPoint x="1279.81" y="438.75" as="targetPoint" />
          </mxGeometry>
        </mxCell>
        <mxCell id="JLhUXGUJFV2L9TylYYv--210" value="" style="endArrow=none;html=1;rounded=0;entryX=0;entryY=0.5;entryDx=0;entryDy=0;exitX=0.5;exitY=0;exitDx=0;exitDy=0;startArrow=classic;startFill=1;endFill=0;fillColor=#6a00ff;strokeColor=#3700CC;" edge="1" parent="1">
          <mxGeometry width="50" height="50" relative="1" as="geometry">
            <mxPoint x="1400.1100000000001" y="400.25" as="sourcePoint" />
            <mxPoint x="1399.52" y="358.25" as="targetPoint" />
          </mxGeometry>
        </mxCell>
        <mxCell id="JLhUXGUJFV2L9TylYYv--211" value="" style="endArrow=none;html=1;rounded=0;entryX=0;entryY=0.5;entryDx=0;entryDy=0;exitX=0.5;exitY=0;exitDx=0;exitDy=0;startArrow=classic;startFill=1;endFill=0;fillColor=#6a00ff;strokeColor=#3700CC;" edge="1" parent="1">
          <mxGeometry width="50" height="50" relative="1" as="geometry">
            <mxPoint x="1400.4" y="480.75" as="sourcePoint" />
            <mxPoint x="1399.81" y="438.75" as="targetPoint" />
          </mxGeometry>
        </mxCell>
        <mxCell id="JLhUXGUJFV2L9TylYYv--212" value="" style="endArrow=classic;html=1;rounded=0;entryX=0;entryY=1;entryDx=0;entryDy=0;exitX=0.5;exitY=0;exitDx=0;exitDy=0;startArrow=none;startFill=0;endFill=1;fillColor=#e3c800;strokeColor=#B09500;" edge="1" parent="1">
          <mxGeometry width="50" height="50" relative="1" as="geometry">
            <mxPoint x="1250" y="721" as="sourcePoint" />
            <mxPoint x="1252" y="669" as="targetPoint" />
          </mxGeometry>
        </mxCell>
        <mxCell id="JLhUXGUJFV2L9TylYYv--213" value="" style="endArrow=classic;html=1;rounded=0;entryX=1;entryY=1;entryDx=0;entryDy=0;exitX=0.5;exitY=0;exitDx=0;exitDy=0;startArrow=none;startFill=0;endFill=1;fillColor=#e3c800;strokeColor=#B09500;" edge="1" parent="1">
          <mxGeometry width="50" height="50" relative="1" as="geometry">
            <mxPoint x="1430" y="721" as="sourcePoint" />
            <mxPoint x="1428" y="669" as="targetPoint" />
          </mxGeometry>
        </mxCell>
        <mxCell id="JLhUXGUJFV2L9TylYYv--214" value="" style="endArrow=none;html=1;rounded=0;entryX=0.5;entryY=1;entryDx=0;entryDy=0;exitX=0;exitY=0;exitDx=0;exitDy=0;startArrow=classic;startFill=1;endFill=0;fillColor=#e3c800;strokeColor=#B09500;" edge="1" parent="1">
          <mxGeometry width="50" height="50" relative="1" as="geometry">
            <mxPoint x="1252" y="811.5" as="sourcePoint" />
            <mxPoint x="1250" y="759.5" as="targetPoint" />
          </mxGeometry>
        </mxCell>
        <mxCell id="JLhUXGUJFV2L9TylYYv--215" value="" style="endArrow=none;html=1;rounded=0;entryX=0.5;entryY=1;entryDx=0;entryDy=0;exitX=1;exitY=0;exitDx=0;exitDy=0;startArrow=classic;startFill=1;endFill=0;fillColor=#e3c800;strokeColor=#B09500;" edge="1" parent="1">
          <mxGeometry width="50" height="50" relative="1" as="geometry">
            <mxPoint x="1428" y="811.5" as="sourcePoint" />
            <mxPoint x="1430" y="759.5" as="targetPoint" />
          </mxGeometry>
        </mxCell>
        <mxCell id="JLhUXGUJFV2L9TylYYv--216" value="" style="endArrow=classic;html=1;rounded=0;entryX=0;entryY=1;entryDx=0;entryDy=0;exitX=0.5;exitY=0;exitDx=0;exitDy=0;startArrow=none;startFill=0;endFill=1;fillColor=#e3c800;strokeColor=#B09500;" edge="1" parent="1">
          <mxGeometry width="50" height="50" relative="1" as="geometry">
            <mxPoint x="1250" y="1039" as="sourcePoint" />
            <mxPoint x="1252" y="987" as="targetPoint" />
          </mxGeometry>
        </mxCell>
        <mxCell id="JLhUXGUJFV2L9TylYYv--217" value="" style="endArrow=classic;html=1;rounded=0;entryX=1;entryY=1;entryDx=0;entryDy=0;exitX=0.5;exitY=0;exitDx=0;exitDy=0;startArrow=none;startFill=0;endFill=1;fillColor=#e3c800;strokeColor=#B09500;" edge="1" parent="1">
          <mxGeometry width="50" height="50" relative="1" as="geometry">
            <mxPoint x="1430" y="1039" as="sourcePoint" />
            <mxPoint x="1428" y="987" as="targetPoint" />
          </mxGeometry>
        </mxCell>
        <mxCell id="JLhUXGUJFV2L9TylYYv--220" value="" style="ellipse;whiteSpace=wrap;html=1;aspect=fixed;fillColor=#1ba1e2;fontColor=#ffffff;strokeColor=#006EAF;" vertex="1" parent="1">
          <mxGeometry x="2159.84" y="599" width="80" height="80" as="geometry" />
        </mxCell>
        <mxCell id="JLhUXGUJFV2L9TylYYv--221" value="" style="ellipse;whiteSpace=wrap;html=1;aspect=fixed;fillColor=#1ba1e2;fontColor=#ffffff;strokeColor=#006EAF;" vertex="1" parent="1">
          <mxGeometry x="2039.8400000000001" y="599" width="80" height="80" as="geometry" />
        </mxCell>
        <mxCell id="JLhUXGUJFV2L9TylYYv--224" value="" style="ellipse;whiteSpace=wrap;html=1;aspect=fixed;fillColor=#1ba1e2;fontColor=#ffffff;strokeColor=#006EAF;" vertex="1" parent="1">
          <mxGeometry x="2399.84" y="598.5" width="80" height="80" as="geometry" />
        </mxCell>
        <mxCell id="JLhUXGUJFV2L9TylYYv--225" value="" style="ellipse;whiteSpace=wrap;html=1;aspect=fixed;fillColor=#1ba1e2;fontColor=#ffffff;strokeColor=#006EAF;" vertex="1" parent="1">
          <mxGeometry x="2279.84" y="598.5" width="80" height="80" as="geometry" />
        </mxCell>
        <mxCell id="JLhUXGUJFV2L9TylYYv--384" value="" style="endArrow=classic;html=1;rounded=0;entryX=0.5;entryY=1;entryDx=0;entryDy=0;exitX=0.5;exitY=0;exitDx=0;exitDy=0;startArrow=none;startFill=0;endFill=1;fillColor=#6a00ff;strokeColor=#3700CC;" edge="1" parent="1">
          <mxGeometry width="50" height="50" relative="1" as="geometry">
            <mxPoint x="2040" y="600" as="sourcePoint" />
            <mxPoint x="2040" y="560" as="targetPoint" />
          </mxGeometry>
        </mxCell>
        <mxCell id="JLhUXGUJFV2L9TylYYv--385" value="" style="endArrow=classic;html=1;rounded=0;entryX=0.5;entryY=1;entryDx=0;entryDy=0;exitX=0.5;exitY=0;exitDx=0;exitDy=0;startArrow=none;startFill=0;endFill=1;fillColor=#6a00ff;strokeColor=#3700CC;" edge="1" parent="1">
          <mxGeometry width="50" height="50" relative="1" as="geometry">
            <mxPoint x="2159.84" y="598.5" as="sourcePoint" />
            <mxPoint x="2159.84" y="558.5" as="targetPoint" />
          </mxGeometry>
        </mxCell>
        <mxCell id="JLhUXGUJFV2L9TylYYv--386" value="" style="endArrow=classic;html=1;rounded=0;entryX=0.5;entryY=1;entryDx=0;entryDy=0;exitX=0.5;exitY=0;exitDx=0;exitDy=0;startArrow=none;startFill=0;endFill=1;fillColor=#6a00ff;strokeColor=#3700CC;" edge="1" parent="1">
          <mxGeometry width="50" height="50" relative="1" as="geometry">
            <mxPoint x="2279.84" y="598.5" as="sourcePoint" />
            <mxPoint x="2279.84" y="558.5" as="targetPoint" />
          </mxGeometry>
        </mxCell>
        <mxCell id="JLhUXGUJFV2L9TylYYv--387" value="" style="endArrow=classic;html=1;rounded=0;entryX=0.5;entryY=1;entryDx=0;entryDy=0;exitX=0.5;exitY=0;exitDx=0;exitDy=0;startArrow=none;startFill=0;endFill=1;fillColor=#6a00ff;strokeColor=#3700CC;" edge="1" parent="1">
          <mxGeometry width="50" height="50" relative="1" as="geometry">
            <mxPoint x="2399.84" y="598.5" as="sourcePoint" />
            <mxPoint x="2399.84" y="558.5" as="targetPoint" />
          </mxGeometry>
        </mxCell>
        <mxCell id="JLhUXGUJFV2L9TylYYv--388" value="" style="endArrow=none;html=1;rounded=0;entryX=0.5;entryY=1;entryDx=0;entryDy=0;exitX=0.5;exitY=0;exitDx=0;exitDy=0;startArrow=classic;startFill=1;endFill=0;fillColor=#6a00ff;strokeColor=#3700CC;" edge="1" parent="1">
          <mxGeometry width="50" height="50" relative="1" as="geometry">
            <mxPoint x="2119.29" y="601" as="sourcePoint" />
            <mxPoint x="2119.29" y="561" as="targetPoint" />
          </mxGeometry>
        </mxCell>
        <mxCell id="JLhUXGUJFV2L9TylYYv--389" value="" style="endArrow=none;html=1;rounded=0;entryX=0.5;entryY=1;entryDx=0;entryDy=0;exitX=0.5;exitY=0;exitDx=0;exitDy=0;startArrow=classic;startFill=1;endFill=0;fillColor=#6a00ff;strokeColor=#3700CC;" edge="1" parent="1">
          <mxGeometry width="50" height="50" relative="1" as="geometry">
            <mxPoint x="2239.13" y="599.5" as="sourcePoint" />
            <mxPoint x="2239.13" y="559.5" as="targetPoint" />
          </mxGeometry>
        </mxCell>
        <mxCell id="JLhUXGUJFV2L9TylYYv--390" value="" style="endArrow=none;html=1;rounded=0;entryX=0.5;entryY=1;entryDx=0;entryDy=0;exitX=0.5;exitY=0;exitDx=0;exitDy=0;startArrow=classic;startFill=1;endFill=0;fillColor=#6a00ff;strokeColor=#3700CC;" edge="1" parent="1">
          <mxGeometry width="50" height="50" relative="1" as="geometry">
            <mxPoint x="2359.13" y="599.5" as="sourcePoint" />
            <mxPoint x="2359.13" y="559.5" as="targetPoint" />
          </mxGeometry>
        </mxCell>
        <mxCell id="JLhUXGUJFV2L9TylYYv--391" value="" style="endArrow=none;html=1;rounded=0;entryX=0.5;entryY=1;entryDx=0;entryDy=0;exitX=0.5;exitY=0;exitDx=0;exitDy=0;startArrow=classic;startFill=1;endFill=0;fillColor=#6a00ff;strokeColor=#3700CC;" edge="1" parent="1">
          <mxGeometry width="50" height="50" relative="1" as="geometry">
            <mxPoint x="2479.13" y="599.5" as="sourcePoint" />
            <mxPoint x="2479.13" y="559.5" as="targetPoint" />
          </mxGeometry>
        </mxCell>
        <mxCell id="JLhUXGUJFV2L9TylYYv--392" value="" style="rounded=0;whiteSpace=wrap;html=1;fillColor=#a20025;fontColor=#ffffff;strokeColor=#6F0000;" vertex="1" parent="1">
          <mxGeometry x="2039.84" y="780" width="440.16" height="20" as="geometry" />
        </mxCell>
        <mxCell id="JLhUXGUJFV2L9TylYYv--393" value="" style="rounded=0;whiteSpace=wrap;html=1;fillColor=#008a00;fontColor=#ffffff;strokeColor=#005700;" vertex="1" parent="1">
          <mxGeometry x="2040.0000000000002" y="761.5" width="440.16" height="20" as="geometry" />
        </mxCell>
        <mxCell id="JLhUXGUJFV2L9TylYYv--394" value="" style="rounded=0;whiteSpace=wrap;html=1;fillColor=#647687;fontColor=#ffffff;strokeColor=#314354;" vertex="1" parent="1">
          <mxGeometry x="2040" y="741.5" width="440.16" height="20" as="geometry" />
        </mxCell>
        <mxCell id="JLhUXGUJFV2L9TylYYv--395" value="" style="rounded=0;whiteSpace=wrap;html=1;fillColor=#1ba1e2;fontColor=#ffffff;strokeColor=#006EAF;" vertex="1" parent="1">
          <mxGeometry x="2040" y="721.5" width="440.16" height="20" as="geometry" />
        </mxCell>
        <mxCell id="JLhUXGUJFV2L9TylYYv--365" value="" style="rounded=0;whiteSpace=wrap;html=1;rotation=-180;container=0;" vertex="1" parent="1">
          <mxGeometry x="2040.0000000000002" y="360" width="440" height="38.5" as="geometry" />
        </mxCell>
        <mxCell id="JLhUXGUJFV2L9TylYYv--366" value="" style="rounded=0;whiteSpace=wrap;html=1;rotation=-180;container=0;" vertex="1" parent="1">
          <mxGeometry x="2040.0000000000002" y="401" width="440" height="38.5" as="geometry" />
        </mxCell>
        <mxCell id="JLhUXGUJFV2L9TylYYv--367" value="" style="ellipse;whiteSpace=wrap;html=1;aspect=fixed;fillColor=#1ba1e2;fontColor=#ffffff;strokeColor=#006EAF;rotation=-180;container=0;" vertex="1" parent="1">
          <mxGeometry x="2280" y="481" width="80" height="80" as="geometry" />
        </mxCell>
        <mxCell id="JLhUXGUJFV2L9TylYYv--368" value="" style="ellipse;whiteSpace=wrap;html=1;aspect=fixed;fillColor=#1ba1e2;fontColor=#ffffff;strokeColor=#006EAF;rotation=-180;container=0;" vertex="1" parent="1">
          <mxGeometry x="2400" y="481" width="80" height="80" as="geometry" />
        </mxCell>
        <mxCell id="JLhUXGUJFV2L9TylYYv--369" value="" style="ellipse;whiteSpace=wrap;html=1;aspect=fixed;fillColor=#1ba1e2;fontColor=#ffffff;strokeColor=#006EAF;rotation=-180;container=0;" vertex="1" parent="1">
          <mxGeometry x="2040.0000000000002" y="481" width="80" height="80" as="geometry" />
        </mxCell>
        <mxCell id="JLhUXGUJFV2L9TylYYv--370" value="" style="ellipse;whiteSpace=wrap;html=1;aspect=fixed;fillColor=#1ba1e2;fontColor=#ffffff;strokeColor=#006EAF;rotation=-180;container=0;" vertex="1" parent="1">
          <mxGeometry x="2160" y="482" width="80" height="80" as="geometry" />
        </mxCell>
        <mxCell id="JLhUXGUJFV2L9TylYYv--396" value="" style="rounded=0;whiteSpace=wrap;html=1;container=0;fillColor=#d80073;fontColor=#ffffff;strokeColor=#A50040;" vertex="1" parent="1">
          <mxGeometry x="2040" y="419.5" width="440.16" height="20" as="geometry" />
        </mxCell>
        <mxCell id="JLhUXGUJFV2L9TylYYv--397" value="" style="rounded=0;whiteSpace=wrap;html=1;container=0;fillColor=#e3c800;fontColor=#000000;strokeColor=#B09500;" vertex="1" parent="1">
          <mxGeometry x="2040" y="401" width="440.16" height="20" as="geometry" />
        </mxCell>
        <mxCell id="JLhUXGUJFV2L9TylYYv--398" value="" style="rounded=0;whiteSpace=wrap;html=1;container=0;fillColor=#f9f7ed;strokeColor=#36393d;" vertex="1" parent="1">
          <mxGeometry x="2039.84" y="381" width="440.16" height="20" as="geometry" />
        </mxCell>
        <mxCell id="JLhUXGUJFV2L9TylYYv--399" value="" style="rounded=0;whiteSpace=wrap;html=1;container=0;" vertex="1" parent="1">
          <mxGeometry x="2040.0000000000002" y="361" width="440.16" height="20" as="geometry" />
        </mxCell>
        <mxCell id="JLhUXGUJFV2L9TylYYv--251" value="" style="endArrow=classic;html=1;rounded=0;entryX=0;entryY=0.5;entryDx=0;entryDy=0;startArrow=none;startFill=0;endFill=1;fillColor=#e3c800;strokeColor=#B09500;exitX=0;exitY=0.5;exitDx=0;exitDy=0;" edge="1" parent="1" target="JLhUXGUJFV2L9TylYYv--221" source="JLhUXGUJFV2L9TylYYv--359">
          <mxGeometry width="50" height="50" relative="1" as="geometry">
            <mxPoint x="2040" y="720" as="sourcePoint" />
            <mxPoint x="2049.84" y="679" as="targetPoint" />
          </mxGeometry>
        </mxCell>
        <mxCell id="JLhUXGUJFV2L9TylYYv--252" value="" style="endArrow=classic;html=1;rounded=0;entryX=0;entryY=0.5;entryDx=0;entryDy=0;startArrow=none;startFill=0;endFill=1;fillColor=#e3c800;strokeColor=#B09500;exitX=0.273;exitY=0.506;exitDx=0;exitDy=0;exitPerimeter=0;" edge="1" parent="1" target="JLhUXGUJFV2L9TylYYv--220" source="JLhUXGUJFV2L9TylYYv--359">
          <mxGeometry width="50" height="50" relative="1" as="geometry">
            <mxPoint x="2240" y="720" as="sourcePoint" />
            <mxPoint x="2229.84" y="679" as="targetPoint" />
          </mxGeometry>
        </mxCell>
        <mxCell id="JLhUXGUJFV2L9TylYYv--348" value="" style="endArrow=classic;html=1;rounded=0;entryX=0;entryY=0.5;entryDx=0;entryDy=0;startArrow=none;startFill=0;endFill=1;fillColor=#e3c800;strokeColor=#B09500;exitX=0.545;exitY=0.506;exitDx=0;exitDy=0;exitPerimeter=0;" edge="1" parent="1" source="JLhUXGUJFV2L9TylYYv--359" target="JLhUXGUJFV2L9TylYYv--225">
          <mxGeometry width="50" height="50" relative="1" as="geometry">
            <mxPoint x="2280" y="720" as="sourcePoint" />
            <mxPoint x="2291.84" y="668" as="targetPoint" />
          </mxGeometry>
        </mxCell>
        <mxCell id="JLhUXGUJFV2L9TylYYv--349" value="" style="endArrow=classic;html=1;rounded=0;entryX=0;entryY=0.5;entryDx=0;entryDy=0;startArrow=none;startFill=0;endFill=1;fillColor=#e3c800;strokeColor=#B09500;exitX=0.818;exitY=0.506;exitDx=0;exitDy=0;exitPerimeter=0;" edge="1" parent="1" source="JLhUXGUJFV2L9TylYYv--359" target="JLhUXGUJFV2L9TylYYv--224">
          <mxGeometry width="50" height="50" relative="1" as="geometry">
            <mxPoint x="2400" y="720" as="sourcePoint" />
            <mxPoint x="2467.84" y="668" as="targetPoint" />
          </mxGeometry>
        </mxCell>
        <mxCell id="JLhUXGUJFV2L9TylYYv--360" value="" style="endArrow=classic;html=1;rounded=0;exitX=0.179;exitY=0.455;exitDx=0;exitDy=0;exitPerimeter=0;entryX=0.5;entryY=1;entryDx=0;entryDy=0;fillColor=#a20025;strokeColor=#6F0000;" edge="1" parent="1" source="JLhUXGUJFV2L9TylYYv--358">
          <mxGeometry width="50" height="50" relative="1" as="geometry">
            <mxPoint x="2118.97" y="760.0000000000002" as="sourcePoint" />
            <mxPoint x="2118.97" y="645.0000000000002" as="targetPoint" />
          </mxGeometry>
        </mxCell>
        <mxCell id="JLhUXGUJFV2L9TylYYv--362" value="" style="endArrow=classic;html=1;rounded=0;entryX=0.5;entryY=1;entryDx=0;entryDy=0;fillColor=#a20025;strokeColor=#6F0000;exitX=0.454;exitY=0.455;exitDx=0;exitDy=0;exitPerimeter=0;" edge="1" parent="1" source="JLhUXGUJFV2L9TylYYv--358">
          <mxGeometry width="50" height="50" relative="1" as="geometry">
            <mxPoint x="2240" y="760" as="sourcePoint" />
            <mxPoint x="2239.8399999999997" y="640.0000000000002" as="targetPoint" />
          </mxGeometry>
        </mxCell>
        <mxCell id="JLhUXGUJFV2L9TylYYv--363" value="" style="endArrow=classic;html=1;rounded=0;entryX=0.5;entryY=1;entryDx=0;entryDy=0;fillColor=#a20025;strokeColor=#6F0000;exitX=0.727;exitY=0.455;exitDx=0;exitDy=0;exitPerimeter=0;" edge="1" parent="1" source="JLhUXGUJFV2L9TylYYv--358">
          <mxGeometry width="50" height="50" relative="1" as="geometry">
            <mxPoint x="2360" y="759" as="sourcePoint" />
            <mxPoint x="2359.8399999999997" y="639.0000000000002" as="targetPoint" />
          </mxGeometry>
        </mxCell>
        <mxCell id="JLhUXGUJFV2L9TylYYv--364" value="" style="endArrow=classic;html=1;rounded=0;entryX=0.5;entryY=1;entryDx=0;entryDy=0;fillColor=#a20025;strokeColor=#6F0000;exitX=1;exitY=0.5;exitDx=0;exitDy=0;" edge="1" parent="1" source="JLhUXGUJFV2L9TylYYv--358">
          <mxGeometry width="50" height="50" relative="1" as="geometry">
            <mxPoint x="2479.29" y="759" as="sourcePoint" />
            <mxPoint x="2479.1299999999997" y="639.0000000000002" as="targetPoint" />
          </mxGeometry>
        </mxCell>
        <mxCell id="JLhUXGUJFV2L9TylYYv--371" value="" style="endArrow=classic;html=1;rounded=0;entryX=0;entryY=0.5;entryDx=0;entryDy=0;startArrow=none;startFill=0;endFill=1;fillColor=#e3c800;strokeColor=#B09500;exitX=0;exitY=0.5;exitDx=0;exitDy=0;" edge="1" parent="1" source="JLhUXGUJFV2L9TylYYv--366" target="JLhUXGUJFV2L9TylYYv--368">
          <mxGeometry width="50" height="50" relative="1" as="geometry">
            <mxPoint x="2480" y="440" as="sourcePoint" />
            <mxPoint x="2470" y="481" as="targetPoint" />
          </mxGeometry>
        </mxCell>
        <mxCell id="JLhUXGUJFV2L9TylYYv--372" value="" style="endArrow=classic;html=1;rounded=0;entryX=0;entryY=0.5;entryDx=0;entryDy=0;startArrow=none;startFill=0;endFill=1;fillColor=#e3c800;strokeColor=#B09500;exitX=0.273;exitY=0.506;exitDx=0;exitDy=0;exitPerimeter=0;" edge="1" parent="1" source="JLhUXGUJFV2L9TylYYv--366" target="JLhUXGUJFV2L9TylYYv--367">
          <mxGeometry width="50" height="50" relative="1" as="geometry">
            <mxPoint x="2280" y="440" as="sourcePoint" />
            <mxPoint x="2290" y="481" as="targetPoint" />
          </mxGeometry>
        </mxCell>
        <mxCell id="JLhUXGUJFV2L9TylYYv--373" value="" style="endArrow=classic;html=1;rounded=0;entryX=0;entryY=0.5;entryDx=0;entryDy=0;startArrow=none;startFill=0;endFill=1;fillColor=#e3c800;strokeColor=#B09500;exitX=0.545;exitY=0.506;exitDx=0;exitDy=0;exitPerimeter=0;" edge="1" parent="1" source="JLhUXGUJFV2L9TylYYv--366" target="JLhUXGUJFV2L9TylYYv--370">
          <mxGeometry width="50" height="50" relative="1" as="geometry">
            <mxPoint x="2240" y="440" as="sourcePoint" />
            <mxPoint x="2228" y="492" as="targetPoint" />
          </mxGeometry>
        </mxCell>
        <mxCell id="JLhUXGUJFV2L9TylYYv--374" value="" style="endArrow=classic;html=1;rounded=0;entryX=0;entryY=0.5;entryDx=0;entryDy=0;startArrow=none;startFill=0;endFill=1;fillColor=#e3c800;strokeColor=#B09500;exitX=0.818;exitY=0.506;exitDx=0;exitDy=0;exitPerimeter=0;" edge="1" parent="1" source="JLhUXGUJFV2L9TylYYv--366" target="JLhUXGUJFV2L9TylYYv--369">
          <mxGeometry width="50" height="50" relative="1" as="geometry">
            <mxPoint x="2120" y="440" as="sourcePoint" />
            <mxPoint x="2052" y="492" as="targetPoint" />
          </mxGeometry>
        </mxCell>
        <mxCell id="JLhUXGUJFV2L9TylYYv--375" value="" style="endArrow=classic;html=1;rounded=0;exitX=0.179;exitY=0.455;exitDx=0;exitDy=0;exitPerimeter=0;entryX=0.5;entryY=1;entryDx=0;entryDy=0;fillColor=#a20025;strokeColor=#6F0000;" edge="1" parent="1" source="JLhUXGUJFV2L9TylYYv--365">
          <mxGeometry width="50" height="50" relative="1" as="geometry">
            <mxPoint x="2401" y="400" as="sourcePoint" />
            <mxPoint x="2401" y="515" as="targetPoint" />
          </mxGeometry>
        </mxCell>
        <mxCell id="JLhUXGUJFV2L9TylYYv--376" value="" style="endArrow=classic;html=1;rounded=0;entryX=0.5;entryY=1;entryDx=0;entryDy=0;fillColor=#a20025;strokeColor=#6F0000;exitX=0.454;exitY=0.455;exitDx=0;exitDy=0;exitPerimeter=0;" edge="1" parent="1" source="JLhUXGUJFV2L9TylYYv--365">
          <mxGeometry width="50" height="50" relative="1" as="geometry">
            <mxPoint x="2280" y="400" as="sourcePoint" />
            <mxPoint x="2280" y="520" as="targetPoint" />
          </mxGeometry>
        </mxCell>
        <mxCell id="JLhUXGUJFV2L9TylYYv--377" value="" style="endArrow=classic;html=1;rounded=0;entryX=0.5;entryY=1;entryDx=0;entryDy=0;fillColor=#a20025;strokeColor=#6F0000;exitX=0.727;exitY=0.455;exitDx=0;exitDy=0;exitPerimeter=0;" edge="1" parent="1" source="JLhUXGUJFV2L9TylYYv--365">
          <mxGeometry width="50" height="50" relative="1" as="geometry">
            <mxPoint x="2160" y="401" as="sourcePoint" />
            <mxPoint x="2160" y="521" as="targetPoint" />
          </mxGeometry>
        </mxCell>
        <mxCell id="JLhUXGUJFV2L9TylYYv--378" value="" style="endArrow=classic;html=1;rounded=0;entryX=0.5;entryY=1;entryDx=0;entryDy=0;fillColor=#a20025;strokeColor=#6F0000;exitX=1;exitY=0.5;exitDx=0;exitDy=0;" edge="1" parent="1" source="JLhUXGUJFV2L9TylYYv--365">
          <mxGeometry width="50" height="50" relative="1" as="geometry">
            <mxPoint x="2041.0000000000002" y="401" as="sourcePoint" />
            <mxPoint x="2041.0000000000002" y="521" as="targetPoint" />
          </mxGeometry>
        </mxCell>
        <mxCell id="JLhUXGUJFV2L9TylYYv--400" value="" style="rounded=0;whiteSpace=wrap;html=1;" vertex="1" parent="1">
          <mxGeometry x="1880" y="761.5" width="160" height="38.5" as="geometry" />
        </mxCell>
        <mxCell id="JLhUXGUJFV2L9TylYYv--401" value="" style="rounded=0;whiteSpace=wrap;html=1;" vertex="1" parent="1">
          <mxGeometry x="1740" y="720.75" width="300" height="38.5" as="geometry" />
        </mxCell>
        <mxCell id="JLhUXGUJFV2L9TylYYv--402" value="" style="rounded=0;whiteSpace=wrap;html=1;rotation=90;" vertex="1" parent="1">
          <mxGeometry x="1820" y="861.5" width="160" height="38.5" as="geometry" />
        </mxCell>
        <mxCell id="JLhUXGUJFV2L9TylYYv--404" value="" style="rounded=0;whiteSpace=wrap;html=1;" vertex="1" parent="1">
          <mxGeometry x="1750" y="401" width="290" height="39" as="geometry" />
        </mxCell>
        <mxCell id="JLhUXGUJFV2L9TylYYv--405" value="" style="rounded=0;whiteSpace=wrap;html=1;" vertex="1" parent="1">
          <mxGeometry x="1880" y="359.5" width="160" height="39" as="geometry" />
        </mxCell>
        <mxCell id="JLhUXGUJFV2L9TylYYv--406" value="" style="rounded=0;whiteSpace=wrap;html=1;rotation=-90;" vertex="1" parent="1">
          <mxGeometry x="1820" y="260.5" width="160" height="39" as="geometry" />
        </mxCell>
      </root>
    </mxGraphModel>
  </diagram>
</mxfile>
